<svg id="logo-mzc-text" xmlns="http://www.w3.org/2000/svg" xmlns:xlink="http://www.w3.org/1999/xlink" width="99.886" height="27.436" viewBox="0 0 99.886 27.436">
  <g fill="#333">
    <path d="M9.033.176,6.578,7.187,4.122.176H0v10.8H2.476L2.419,2.893h.01L5.54,10.979H7.625l3.113-8.086-.058,8.086h2.48V.176Z" transform="translate(0 -0.017)" />
    <path d="M34.239,4.834V7h2.654a6.305,6.305,0,0,1-.044.87.647.647,0,0,1-.559.563,22.72,22.72,0,0,1-2.4.093c-1.134-.023-1.819-.045-2.043-.072a.911.911,0,0,1-.824-.837,14.684,14.684,0,0,1-.1-2.094,12.188,12.188,0,0,1,.1-1.864.914.914,0,0,1,.693-.821A11.755,11.755,0,0,1,33.885,2.7a17.267,17.267,0,0,1,2.356.1.594.594,0,0,1,.535.484,3.879,3.879,0,0,1,.039.6h2.513c0-.449-.006-.783-.015-1a3.888,3.888,0,0,0-.439-1.771,2.2,2.2,0,0,0-1.4-.874A15.828,15.828,0,0,0,34.12,0,26.508,26.508,0,0,0,31.2.126a6.219,6.219,0,0,0-1.188.225,1.8,1.8,0,0,0-.7.4,2.906,2.906,0,0,0-.748,1.658,19.428,19.428,0,0,0-.153,2.939q0,1.235.031,2.325a7.251,7.251,0,0,0,.189,1.543A2.1,2.1,0,0,0,30.349,10.9a17.844,17.844,0,0,0,3.342.219c.877,0,1.636-.017,2.277-.045a8.185,8.185,0,0,0,1.667-.239A2.233,2.233,0,0,0,39.257,8.57q.089-1.159.089-3.274c0-.071,0-.222-.009-.462Z" transform="translate(-2.732)" />
    <path d="M47.348.176l-4.375,10.8h2.87l.7-1.831h5.46l.708,1.831h2.852L51.252.176Zm.1,6.607L49.033,2.69h.505l1.583,4.092Z" transform="translate(-4.135 -0.017)" />
    <path d="M68.75,2.765V.176H59.5V2.765h5.179L59.372,8.372v2.606h9.553V8.372H63.359Z" transform="translate(-5.713 -0.017)" />
    <path d="M81.745.175A24.963,24.963,0,0,0,78.144,0,26.555,26.555,0,0,0,74.4.175a2.083,2.083,0,0,0-1.771,1.8,19.652,19.652,0,0,0-.221,3.59,19.711,19.711,0,0,0,.221,3.587A2.075,2.075,0,0,0,74.4,10.944a25.024,25.024,0,0,0,3.673.175,24.9,24.9,0,0,0,3.673-.175A2.077,2.077,0,0,0,83.517,9.15a19.985,19.985,0,0,0,.224-3.587,20.014,20.014,0,0,0-.224-3.59,2.086,2.086,0,0,0-1.772-1.8m-.6,7.1a1.037,1.037,0,0,1-.9.942,15.879,15.879,0,0,1-2.166.094,15.908,15.908,0,0,1-2.165-.094,1.047,1.047,0,0,1-.912-.942,9.53,9.53,0,0,1-.076-1.448A11.142,11.142,0,0,1,75.05,3.7a.965.965,0,0,1,.629-.754,10.942,10.942,0,0,1,2.3-.134c.9,0,1.464,0,1.673.014a1.94,1.94,0,0,1,1.138.311,1.678,1.678,0,0,1,.393,1.084c.031.326.046.876.046,1.654a8.526,8.526,0,0,1-.084,1.4" transform="translate(-6.967)" />
    <path d="M95.494,8.231,91.549.176H87.412v10.8h2.519V2.914L93.9,10.978h4.109V.176H95.494Z" transform="translate(-8.412 -0.017)" />
    <path d="M101.6,10.978h8.065v-2.6h-5.589V6.647h5.589V4.275h-5.589V2.715h5.589V.175H101.6Z" transform="translate(-9.775 -0.017)" />
    <path d="M17.023,10.978h8.063v-2.6H19.5V6.647h5.587V4.275H19.5V2.715h5.587V.175H17.023Z" transform="translate(-1.639 -0.017)" />
    <path d="M57.432,18.226a25.146,25.146,0,0,0-3.6-.173,26.659,26.659,0,0,0-3.744.173,2.082,2.082,0,0,0-1.771,1.8,19.662,19.662,0,0,0-.225,3.589,19.7,19.7,0,0,0,.225,3.588A2.08,2.08,0,0,0,50.085,29a24.965,24.965,0,0,0,3.673.174A24.871,24.871,0,0,0,57.432,29a2.082,2.082,0,0,0,1.77-1.8,20.071,20.071,0,0,0,.224-3.588,20.111,20.111,0,0,0-.224-3.589,2.085,2.085,0,0,0-1.77-1.8m-.606,7.1a1.034,1.034,0,0,1-.9.944,16.017,16.017,0,0,1-2.165.091,16.026,16.026,0,0,1-2.165-.091,1.049,1.049,0,0,1-.912-.944,8.973,8.973,0,0,1-.079-1.449,11.058,11.058,0,0,1,.133-2.126.965.965,0,0,1,.63-.755,10.914,10.914,0,0,1,2.3-.135c.9,0,1.465.007,1.671.018a1.965,1.965,0,0,1,1.14.31,1.646,1.646,0,0,1,.39,1.083c.036.327.047.879.047,1.653a8.293,8.293,0,0,1-.084,1.4" transform="translate(-4.627 -1.737)" />
    <path d="M25.627,18.227v10.8h8.062v-2.6H28.106v-8.2Z" transform="translate(-2.465 -1.754)" />
    <path d="M109.181,20.024a2.083,2.083,0,0,0-1.77-1.8,25.623,25.623,0,0,0-3.6-.173c-1.676,0-4.863.071-4.863.071V29.1s3.025.069,4.791.069A25.012,25.012,0,0,0,107.411,29a2.08,2.08,0,0,0,1.77-1.8,19.769,19.769,0,0,0,.226-3.588,19.808,19.808,0,0,0-.226-3.589m-2.374,5.3a1.039,1.039,0,0,1-.9.944,16.066,16.066,0,0,1-2.168.091H101.5v-5.5h2.144c.9,0,1.465.007,1.674.018a1.978,1.978,0,0,1,1.141.31,1.685,1.685,0,0,1,.39,1.083c.034.327.045.879.045,1.653a8.412,8.412,0,0,1-.083,1.4" transform="translate(-9.521 -1.737)" />
    <path d="M79.252,29.153c4.732,0,5.07-1.686,5.07-5.009v-6.07H81.7v6.26c0,1.218-.116,2.315-2.448,2.315s-2.452-1.1-2.452-2.315v-6.26H74.179v6.07c0,3.323.336,5.009,5.073,5.009" transform="translate(-7.139 -1.739)" />
    <path d="M8.486,25.05a6.211,6.211,0,0,1-.043.865.646.646,0,0,1-.56.567,21.524,21.524,0,0,1-2.4.09c-1.133-.017-1.819-.041-2.045-.07a.9.9,0,0,1-.82-.836,14.088,14.088,0,0,1-.1-2.095,11.631,11.631,0,0,1,.1-1.862.913.913,0,0,1,.69-.824,11.814,11.814,0,0,1,2.173-.133,17.417,17.417,0,0,1,2.358.1.594.594,0,0,1,.536.483,3.712,3.712,0,0,1,.039.6H10.92c0-.452-.007-.782-.016-1a3.92,3.92,0,0,0-.437-1.772,2.22,2.22,0,0,0-1.4-.869,15.765,15.765,0,0,0-3.353-.247,26.234,26.234,0,0,0-2.926.127A6.494,6.494,0,0,0,1.6,18.4a1.819,1.819,0,0,0-.7.4,2.9,2.9,0,0,0-.75,1.661A19.546,19.546,0,0,0,0,23.4q0,1.234.032,2.324a7.163,7.163,0,0,0,.186,1.545,2.106,2.106,0,0,0,1.722,1.678,17.588,17.588,0,0,0,3.346.221q1.316,0,2.272-.048a8.113,8.113,0,0,0,1.67-.239,2.233,2.233,0,0,0,1.623-2.261c.031-.426.055-.958.07-1.574Z" transform="translate(0 -1.737)" />
  </g>
</svg>
