<svg id="logo-mzc-icon" xmlns="http://www.w3.org/2000/svg" xmlns:xlink="http://www.w3.org/1999/xlink" width="42.404" height="38.002" viewBox="0 0 42.404 38.002">
  <defs>
    <clipPath id="clip-path">
      <rect width="42.404" height="38.002" />
    </clipPath>
  </defs>
  <g clip-path="url(#clip-path)" fill="#333">
    <path d="M42.725,34.3A21.583,21.583,0,0,0,30.9,22.724a22.124,22.124,0,0,1-1.387,4.654l0,.008a16.748,16.748,0,0,1,8.365,8c-.408.03-.815.062-1.231.062a16.632,16.632,0,0,1-9.945-3.3c-.1-.071-.193-.141-.288-.214s-.2-.139-.288-.215a16.813,16.813,0,0,1-3.3-3.578c-.075-.11-.139-.228-.211-.34s-.143-.226-.211-.341q-.22-.363-.422-.738c-.074.005-.145.005-.221.011l-.095.007a15.938,15.938,0,0,0-4.491.993A21.319,21.319,0,0,0,19.141,31.1c.07.1.139.2.211.294s.137.2.21.293a21.509,21.509,0,0,0,3.287,3.472c.094.08.2.147.292.225s.2.149.292.225a21.411,21.411,0,0,0,20.624,3.235A21.384,21.384,0,0,0,42.725,34.3" transform="translate(-1.652 -2.188)" />
    <path d="M19.826,18.408h0a15.291,15.291,0,0,1-.132-1.876A16.651,16.651,0,0,1,22.6,7.107a16.645,16.645,0,0,1,2.91,9.425,15.278,15.278,0,0,1-.131,1.864c-.014.119-.027.24-.043.358s-.026.239-.044.357a16.6,16.6,0,0,1-1.478,4.726c-.058.118-.123.231-.183.348s-.122.235-.184.352c-.135.251-.277.5-.423.74.057.089.112.189.171.275a16.074,16.074,0,0,0,3.131,3.4,21.489,21.489,0,0,0,2-3.388c.052-.109.1-.217.153-.327s.106-.216.154-.326A21.411,21.411,0,0,0,30.01,20.25c.022-.12.031-.244.051-.364s.033-.243.051-.365a20.81,20.81,0,0,0,.255-3.078A21.435,21.435,0,0,0,25.993,3.464,21.628,21.628,0,0,0,22.735,0,21.735,21.735,0,0,0,14.96,16.532a20.557,20.557,0,0,0,.243,2.984,22.1,22.1,0,0,1,4.623-1.108" transform="translate(-1.439)" />
    <path d="M17.336,31.954l0,0a16.633,16.633,0,0,1-9.992,3.333c-.4,0-.8-.033-1.195-.061a16.755,16.755,0,0,1,8.4-8.022c.11-.048.218-.1.33-.145s.217-.1.329-.145a16.612,16.612,0,0,1,4.744-1.056c.131-.01.264-.011.395-.02s.264-.014.4-.02.291-.023.439-.023.268.014.4.021c.048-.095.1-.177.145-.276a15.879,15.879,0,0,0,1.406-4.482c-.638-.062-1.28-.109-1.934-.109a19.936,19.936,0,0,0-2.01.118c-.119.012-.239.023-.358.036s-.24.022-.359.037a21.355,21.355,0,0,0-4.615,1.119c-.117.042-.225.1-.341.144s-.225.1-.34.144A21.258,21.258,0,0,0,0,38.7a21.346,21.346,0,0,0,4.686,1.135,21.685,21.685,0,0,0,2.681.184,21.435,21.435,0,0,0,13.248-4.581,22.325,22.325,0,0,1-3.279-3.483" transform="translate(0 -2.017)" />
  </g>
</svg>
