<?xml version="1.0" encoding="UTF-8" standalone="no"?>
<!DOCTYPE svg PUBLIC "-//W3C//DTD SVG 1.1//EN" "http://www.w3.org/Graphics/SVG/1.1/DTD/svg11.dtd">
<svg xmlns="http://www.w3.org/2000/svg" version="1.1" viewBox="0.00 0.00 512.00 512.00">
<path fill="#000000" d="
  M 16.01 104.00
  C 16.01 86.30 28.26 70.29 45.29 65.51
  Q 50.63 64.01 62.98 64.01
  Q 259.11 63.99 455.25 64.02
  C 473.92 64.02 489.92 76.47 494.60 94.48
  Q 496.01 99.88 496.01 110.65
  Q 495.99 258.95 496.00 407.25
  C 496.00 425.06 484.33 441.68 466.93 446.46
  Q 461.34 447.99 447.81 447.99
  Q 252.40 448.01 57.00 448.01
  C 38.94 448.01 22.24 436.38 17.49 418.75
  Q 16.01 413.25 16.01 400.99
  Q 15.99 252.50 16.01 104.00
  Z
  M 464.00 104.15
  A 8.15 8.15 0.0 0 0 455.85 96.00
  L 56.15 96.00
  A 8.15 8.15 0.0 0 0 48.00 104.15
  L 48.00 407.85
  A 8.15 8.15 0.0 0 0 56.15 416.00
  L 455.85 416.00
  A 8.15 8.15 0.0 0 0 464.00 407.85
  L 464.00 104.15
  Z"
/>
<circle fill="#000000" cx="87.99" cy="135.98" r="15.94"/>
<circle fill="#000000" cx="143.99" cy="135.98" r="15.94"/>
<path fill="#000000" d="
  M 301.79 193.61
  C 281.53 252.09 261.15 310.53 240.79 368.98
  Q 238.32 376.08 235.85 378.74
  C 232.08 382.81 225.36 385.42 219.85 382.93
  C 209.17 378.09 206.83 370.37 210.55 359.69
  Q 241.23 271.49 271.89 183.29
  Q 274.62 175.42 276.81 172.87
  C 286.02 162.09 303.79 169.85 304.12 183.63
  Q 304.19 186.68 301.79 193.61
  Z"
/>
<path fill="#000000" d="
  M 162.71 192.99
  C 175.10 188.13 187.90 201.57 182.74 213.67
  Q 181.26 217.15 176.00 222.40
  Q 151.46 246.89 126.89 271.50
  A 0.71 0.71 0.0 0 0 126.89 272.51
  Q 153.06 298.69 179.43 325.06
  C 188.55 334.19 182.89 349.09 170.94 351.70
  C 164.17 353.17 159.50 349.85 154.46 344.82
  Q 125.38 315.77 96.33 286.70
  C 85.61 275.97 84.97 268.66 95.83 257.79
  Q 124.93 228.68 154.05 199.59
  Q 159.33 194.32 162.71 192.99
  Z"
/>
<path fill="#000000" d="
  M 349.20 351.03
  C 336.89 355.81 324.10 342.39 329.22 330.36
  Q 330.71 326.87 336.01 321.58
  Q 360.56 297.10 385.11 272.50
  A 0.72 0.72 0.0 0 0 385.11 271.48
  Q 360.35 246.75 335.45 221.80
  Q 330.53 216.87 329.32 214.13
  C 325.18 204.71 331.59 194.20 341.25 192.24
  C 347.96 190.87 352.50 194.15 357.50 199.14
  Q 386.62 228.23 415.72 257.34
  C 426.39 268.02 426.95 275.41 416.16 286.22
  Q 387.34 315.04 358.51 343.86
  Q 352.69 349.67 349.20 351.03
  Z"
/>
</svg>
