<?xml version="1.0" encoding="UTF-8" standalone="no"?>
<!DOCTYPE svg PUBLIC "-//W3C//DTD SVG 1.1//EN" "http://www.w3.org/Graphics/SVG/1.1/DTD/svg11.dtd">
<svg xmlns="http://www.w3.org/2000/svg" version="1.1" viewBox="0.00 0.00 512.00 512.00">
<path fill="#000000" d="
  M 193.54 73.51
  C 188.46 75.70 178.96 81.42 175.11 74.91
  Q 165.91 59.35 156.94 43.65
  C 153.40 37.46 154.02 33.10 160.47 29.96
  Q 198.41 11.50 240.53 8.27
  C 246.53 7.81 251.68 9.66 251.71 16.31
  Q 251.80 33.25 251.73 50.20
  C 251.69 57.79 249.88 61.04 242.25 61.71
  Q 215.44 64.07 193.54 73.51
  Z
  M 185.55 59.51
  Q 209.51 49.43 235.35 46.36
  A 0.44 0.44 0.0 0 0 235.75 45.92
  L 235.75 25.31
  Q 235.75 24.76 235.20 24.82
  Q 203.58 28.22 174.52 41.06
  A 0.47 0.46 -26.8 0 0 174.30 41.72
  L 184.23 59.06
  A 1.05 1.05 0.0 0 0 185.55 59.51
  Z"
/>
<path fill="#000000" d="
  M 479.66 243.49
  C 483.42 243.51 488.11 243.05 491.35 244.25
  C 496.92 246.32 500.27 252.78 498.89 258.44
  Q 498.22 261.19 494.52 265.90
  Q 479.50 285.05 464.41 304.14
  C 457.99 312.27 449.32 312.44 443.05 304.52
  Q 426.35 283.41 409.78 262.22
  C 404.94 256.03 409.54 246.51 416.34 244.10
  C 418.78 243.24 421.75 243.48 424.44 243.50
  A 0.99 0.99 0.0 0 0 425.44 242.58
  C 432.15 150.22 363.81 70.01 271.84 61.60
  C 265.81 61.05 263.27 57.81 263.26 52.02
  Q 263.23 34.50 263.28 17.01
  C 263.30 10.11 267.55 7.74 273.98 8.22
  C 334.37 12.72 391.20 41.91 429.39 89.21
  Q 482.93 155.52 479.13 242.93
  Q 479.10 243.49 479.66 243.49
  Z
  M 429.47 259.28
  Q 429.07 259.14 428.72 259.21
  Q 427.86 259.38 428.40 260.07
  L 453.28 291.69
  Q 453.58 292.08 453.89 291.69
  L 478.82 260.03
  A 0.47 0.47 0.0 0 0 478.40 259.28
  C 459.22 261.51 462.45 251.56 463.03 237.99
  C 467.69 129.53 387.22 36.89 279.81 24.78
  A 0.51 0.50 3.1 0 0 279.25 25.28
  L 279.25 45.72
  A 0.72 0.71 -86.4 0 0 279.87 46.43
  C 380.85 58.96 451.85 149.70 440.71 250.63
  C 440.04 256.74 436.48 260.11 430.19 259.48
  Q 429.97 259.46 429.47 259.28
  Z"
/>
<path fill="#000000" d="
  M 135.31 44.33
  C 138.59 42.22 143.70 44.22 145.76 47.72
  Q 153.47 60.79 160.96 73.97
  C 165.84 82.55 168.37 85.92 159.62 92.27
  Q 136.41 109.11 119.90 132.53
  C 116.85 136.86 112.92 139.25 108.07 136.46
  Q 93.43 128.07 78.87 119.61
  C 73.13 116.27 68.89 112.41 73.33 105.82
  Q 99.17 67.50 135.31 44.33
  Z
  M 91.73 108.58
  L 109.28 118.74
  Q 109.93 119.12 110.38 118.52
  Q 125.83 97.75 146.47 82.10
  A 0.76 0.76 0.0 0 0 146.67 81.12
  L 136.54 63.59
  Q 136.26 63.11 135.82 63.44
  Q 110.27 82.18 91.55 107.71
  A 0.60 0.59 -56.9 0 0 91.73 108.58
  Z"
/>
<path fill="#000000" d="
  M 233.48 202.01
  A 0.47 0.47 0.0 0 0 233.61 201.19
  C 197.82 174.74 203.58 120.34 243.82 101.82
  C 271.76 88.95 305.45 101.13 319.18 128.32
  C 332.04 153.77 324.54 184.36 301.74 201.13
  A 0.50 0.49 36.2 0 0 301.88 201.99
  C 338.61 214.66 364.85 245.08 372.29 283.04
  C 374.75 295.59 374.33 300.50 360.29 300.50
  Q 267.31 300.51 174.33 300.49
  C 164.07 300.49 160.59 297.99 162.19 287.54
  C 168.27 247.68 195.22 215.01 233.48 202.01
  Z
  M 309.43 154.50
  A 41.80 41.80 0.0 0 0 267.63 112.70
  A 41.80 41.80 0.0 0 0 225.83 154.50
  A 41.80 41.80 0.0 0 0 267.63 196.30
  A 41.80 41.80 0.0 0 0 309.43 154.50
  Z
  M 273.76 212.67
  C 229.81 209.80 188.19 239.17 179.14 283.76
  A 0.61 0.61 0.0 0 0 179.74 284.50
  L 355.49 284.50
  A 0.71 0.70 83.7 0 0 356.17 283.64
  C 347.40 244.33 314.36 215.32 273.76 212.67
  Z"
/>
<path fill="#000000" d="
  M 103.06 147.19
  C 107.13 149.76 106.93 154.26 105.01 158.49
  Q 93.11 184.76 90.02 213.47
  C 89.42 218.98 87.72 223.67 81.68 223.71
  Q 66.68 223.80 51.67 223.73
  C 43.05 223.70 35.49 224.34 36.23 213.51
  Q 39.04 171.85 57.55 133.38
  C 60.21 127.84 64.08 124.77 70.01 128.06
  Q 92.70 140.63 103.06 147.19
  Z
  M 87.69 156.58
  L 69.74 146.27
  Q 69.30 146.02 69.09 146.49
  Q 56.29 175.53 52.86 207.10
  Q 52.78 207.75 53.44 207.75
  L 73.98 207.75
  A 0.70 0.69 3.8 0 0 74.67 207.15
  Q 77.95 181.42 88.01 157.53
  A 0.76 0.75 26.8 0 0 87.69 156.58
  Z"
/>
<path fill="#000000" d="
  M 81.75 235.26
  C 86.85 235.31 89.29 239.42 89.71 244.00
  Q 92.39 273.57 104.73 300.50
  C 107.33 306.18 106.32 309.98 101.09 313.03
  Q 86.82 321.33 72.50 329.55
  C 67.11 332.63 61.66 333.95 58.46 327.55
  Q 39.57 289.84 36.30 246.22
  C 35.77 239.17 38.31 235.30 45.50 235.28
  Q 72.56 235.18 81.75 235.26
  Z
  M 73.92 251.25
  L 53.52 251.25
  A 0.63 0.62 87.1 0 0 52.90 251.94
  Q 56.28 283.49 69.06 312.48
  Q 69.27 312.95 69.72 312.69
  L 87.34 302.53
  A 0.86 0.86 0.0 0 0 87.70 301.45
  Q 77.58 277.54 74.45 251.73
  A 0.55 0.53 86.3 0 0 73.92 251.25
  Z"
/>
<path fill="#000000" d="
  M 75.96 358.74
  Q 119.51 333.41 136.81 323.56
  C 148.16 317.09 161.70 312.96 174.76 314.06
  Q 180.31 314.53 188.98 317.49
  C 212.27 325.43 234.88 334.04 258.98 339.37
  Q 266.45 341.02 269.99 342.95
  C 284.06 350.62 290.12 367.49 283.15 382.23
  A 0.41 0.41 0.0 0 0 283.67 382.79
  Q 287.29 381.38 290.57 379.49
  Q 330.99 356.23 371.35 332.88
  C 382.61 326.36 396.62 320.79 409.56 321.51
  C 425.41 322.40 437.45 332.80 439.17 349.03
  Q 440.85 364.95 430.69 374.98
  Q 427.86 377.78 414.20 386.20
  Q 356.35 421.88 298.45 457.46
  Q 283.60 466.59 281.29 467.72
  Q 263.21 476.59 243.14 472.97
  Q 241.42 472.66 223.78 467.97
  Q 182.35 456.93 140.97 445.76
  A 2.39 2.39 0.0 0 0 139.17 446.00
  L 128.70 452.02
  A 0.54 0.53 60.8 0 0 128.50 452.75
  C 134.30 463.07 141.47 473.18 132.61 484.21
  Q 129.96 487.51 121.92 492.07
  C 113.07 497.09 102.09 505.77 91.29 503.45
  C 82.51 501.57 79.51 495.23 74.44 486.26
  Q 46.39 436.74 18.35 387.21
  Q 13.89 379.34 13.17 375.09
  C 10.38 358.70 26.81 353.12 38.40 346.45
  C 48.19 340.81 56.66 337.43 66.15 345.24
  C 70.01 348.42 72.54 353.90 75.18 358.53
  Q 75.47 359.02 75.96 358.74
  Z
  M 423.22 353.51
  C 423.60 344.48 418.32 337.79 409.24 337.46
  C 397.19 337.01 385.60 343.03 375.33 348.99
  Q 341.43 368.66 307.56 388.39
  Q 295.11 395.64 289.80 397.48
  C 277.34 401.78 263.23 401.22 250.99 398.28
  Q 226.00 392.29 201.29 385.25
  Q 196.68 383.93 194.92 382.03
  C 190.79 377.55 193.48 370.15 199.55 369.07
  Q 201.49 368.73 205.33 369.81
  Q 233.96 377.82 241.49 379.76
  C 251.38 382.31 263.34 385.88 268.50 375.72
  C 271.58 369.65 269.96 362.30 264.45 358.28
  Q 261.82 356.37 254.70 354.79
  C 230.40 349.41 207.33 340.84 183.90 332.60
  C 169.61 327.58 157.50 330.17 144.41 337.65
  Q 114.24 354.90 83.80 372.69
  Q 83.35 372.95 83.61 373.40
  L 120.04 437.78
  Q 120.35 438.33 120.90 438.02
  C 125.57 435.42 135.82 427.87 141.00 429.25
  Q 192.28 442.97 243.56 456.71
  C 259.68 461.02 271.21 455.46 284.82 447.08
  Q 349.76 407.14 414.64 367.13
  C 420.72 363.39 422.93 360.45 423.22 353.51
  Z
  M 56.8255 358.5472
  A 3.60 3.60 0.0 0 0 51.9195 357.1867
  L 30.7002 369.1920
  A 3.60 3.60 0.0 0 0 29.3396 374.0980
  L 92.7145 486.1128
  A 3.60 3.60 0.0 0 0 97.6205 487.4733
  L 118.8398 475.4680
  A 3.60 3.60 0.0 0 0 120.2004 470.5620
  L 56.8255 358.5472
  Z"
/>
<circle fill="#000000" cx="50.17" cy="378.87" r="7.62"/>
</svg>
