<svg xmlns="http://www.w3.org/2000/svg" viewBox="0 0 48 48">
  <defs>
    <style>
      .cls-1,
      .cls-2 {
        fill: none;
      }
      .cls-1 {
        stroke: #333333;
        stroke-linecap: round;
        stroke-linejoin: round;
        stroke-width: 2px;
      }
    </style>
  </defs>
  <g id="레이어_2" data-name="레이어 2">
    <g id="레이어_20" data-name="레이어 20">
      <g id="NetworkEvents">
        <path
          class="cls-1"
          d="M41.78,30.46l-3.05-3.72A8.79,8.79,0,0,1,37,19.15a11.89,11.89,0,0,0,.29-2.62C37.26,9.61,31.33,4,24,4S10.74,9.61,10.74,16.53A11.89,11.89,0,0,0,11,19.15a8.8,8.8,0,0,1-1.76,7.59l-3,3.72A1,1,0,0,0,7,32H41A1,1,0,0,0,41.78,30.46Z"
        />
        <path class="cls-1" d="M28.74,40.17a4.85,4.85,0,0,1-9.48,0" />
      </g>
    </g>
    <g id="Web_icon_UI" data-name="Web icon UI">
      <rect class="cls-2" width="48" height="48" />
    </g>
  </g>
</svg>
