<svg xmlns="http://www.w3.org/2000/svg" width="100%" height="100%" viewBox="0 0 42 42">
  <g transform="translate(-1595.799 -976.301)">
    <path d="M1636.8,1001.3v-8h-6.262a14.224,14.224,0,0,0-1.191-2.888l4.424-4.425-5.657-5.657-4.427,4.426a14.22,14.22,0,0,0-2.886-1.188V977.3h-8v6.269a14.274,14.274,0,0,0-2.885,1.189l-4.428-4.428-5.658,5.657,4.428,4.428a14.216,14.216,0,0,0-1.189,2.885H1596.8v8h6.265a14.251,14.251,0,0,0,1.189,2.889l-4.425,4.424,5.658,5.657,4.422-4.422a14.278,14.278,0,0,0,2.891,1.192v6.259h8v-6.258a14.284,14.284,0,0,0,2.892-1.191l4.421,4.42,5.657-5.657-4.421-4.421a14.216,14.216,0,0,0,1.19-2.892Z" fill="none" stroke="#333" stroke-linecap="round" stroke-linejoin="round" stroke-width="2" />
    <circle cx="7.994" cy="7.994" r="7.994" transform="translate(1608.805 989.307)" fill="none" stroke="#333" stroke-linecap="round" stroke-linejoin="round" stroke-width="2" />
  </g>
</svg>
