<svg id="ic-isms-p" xmlns="http://www.w3.org/2000/svg" xmlns:xlink="http://www.w3.org/1999/xlink" width="38.095" height="40" viewBox="0 0 38.095 40">
  <g transform="translate(3.258 0.952)">
    <path d="M35.007,11.478V6.207L19.214,1,3.421,6.207v5.27" transform="translate(-3.421 -1)" fill="none" stroke="#000" stroke-linecap="round" stroke-linejoin="round" stroke-width="2"/>
    <path d="M5.853,30c1.577,2.932,3.907,4.5,6.823,6.324l6.654,4.151,6.654-4.151C28.9,34.506,31.229,32.933,32.806,30" transform="translate(-3.537 -2.381)" fill="none" stroke="#000" stroke-linecap="round" stroke-linejoin="round" stroke-width="2"/>
  </g>
  <g transform="translate(0 15.632)">
    <rect width="1.682" height="8.421" transform="translate(0 0.148)" fill="#000"/>
    <path d="M3.35,23.915l.966-1.16a3.309,3.309,0,0,0,2.137.931c.874,0,1.34-.374,1.34-.965,0-.625-.51-.818-1.261-1.136l-1.125-.478a2.436,2.436,0,0,1-1.7-2.261,2.623,2.623,0,0,1,2.909-2.432,3.732,3.732,0,0,1,2.637,1.08L8.4,18.551a2.681,2.681,0,0,0-1.785-.693c-.738,0-1.2.33-1.2.886,0,.6.59.818,1.307,1.1l1.1.466A2.323,2.323,0,0,1,9.509,22.6c0,1.375-1.148,2.546-3.09,2.546A4.481,4.481,0,0,1,3.35,23.915" transform="translate(-0.16 -16.414)" fill="#000"/>
    <path d="M11.377,16.569h1.864l1.431,3.943c.182.524.341,1.081.511,1.614h.057c.182-.533.33-1.09.511-1.614l1.4-3.943h1.863V24.99H17.479V21.479c0-.8.126-1.967.216-2.762h-.057l-.682,1.977-1.3,3.535H14.7l-1.307-3.535-.671-1.977h-.045c.08.8.216,1.967.216,2.762V24.99H11.377Z" transform="translate(-0.542 -16.421)" fill="#000"/>
    <path d="M20.976,23.915l.966-1.16a3.308,3.308,0,0,0,2.136.931c.875,0,1.342-.374,1.342-.965,0-.625-.511-.818-1.262-1.136l-1.126-.478a2.437,2.437,0,0,1-1.7-2.261,2.623,2.623,0,0,1,2.91-2.432,3.733,3.733,0,0,1,2.636,1.08l-.852,1.057a2.681,2.681,0,0,0-1.784-.693c-.739,0-1.206.33-1.206.886,0,.6.591.818,1.308,1.1l1.1.466A2.323,2.323,0,0,1,27.135,22.6c0,1.375-1.148,2.546-3.09,2.546a4.483,4.483,0,0,1-3.069-1.227" transform="translate(-0.999 -16.414)" fill="#000"/>
    <rect width="3.103" height="1.192" transform="translate(27.358 4.716)" fill="#000"/>
    <path d="M33.64,16.569H36.4c1.863,0,3.3.66,3.3,2.649,0,1.92-1.444,2.784-3.25,2.784H35.322V24.99H33.64Zm2.693,4.1c1.159,0,1.716-.489,1.716-1.454s-.614-1.307-1.772-1.307h-.955v2.761Z" transform="translate(-1.602 -16.421)" fill="#000"/>
  </g>
</svg>
