<svg xmlns="http://www.w3.org/2000/svg" width="64" height="64" viewBox="0 0 64 64">
  <g id="ic_road" transform="translate(0 0.208)">
    <g id="그룹_1200" data-name="그룹 1200" transform="translate(4 5.326)">
      <path id="패스_1130" data-name="패스 1130" d="M41.457,5.466H49v7.543" fill="none"  stroke-linecap="round" stroke-linejoin="round" stroke-width="2"/>
      <path id="패스_1131" data-name="패스 1131" d="M48.781,21.544l5.334,5.334-5.334,5.334" fill="none"  stroke-linecap="round" stroke-linejoin="round" stroke-width="2"/>
      <path id="패스_1132" data-name="패스 1132" d="M49,40.574v7.543H41.457" fill="none"  stroke-linecap="round" stroke-linejoin="round" stroke-width="2"/>
      <line id="선_711" data-name="선 711" y1="13.528" x2="13.528" transform="translate(35.253 5.671)" fill="none"  stroke-linecap="round" stroke-linejoin="round" stroke-width="2"/>
      <line id="선_712" data-name="선 712" x2="15.689" transform="translate(38.426 26.878)" fill="none"  stroke-linecap="round" stroke-linejoin="round" stroke-width="2"/>
      <path id="패스_1133" data-name="패스 1133" d="M38.426,26.785A10.665,10.665,0,1,1,27.761,16.12,10.665,10.665,0,0,1,38.426,26.785Z" fill="none"  stroke-linecap="round" stroke-linejoin="round" stroke-width="2"/>
      <path id="패스_1134" data-name="패스 1134" d="M11.667,26.785a5.333,5.333,0,1,1-5.334-5.333A5.334,5.334,0,0,1,11.667,26.785Z" fill="none"  stroke-linecap="round" stroke-linejoin="round" stroke-width="2"/>
      <line id="선_713" data-name="선 713" x2="5.429" transform="translate(11.666 26.785)" fill="none"  stroke-linecap="round" stroke-linejoin="round" stroke-width="2"/>
      <line id="선_714" data-name="선 714" x2="13.839" y2="13.652" transform="translate(35.161 34.465)" fill="none"  stroke-linecap="round" stroke-linejoin="round" stroke-width="2"/>
    </g>
  </g>
</svg>
