<svg xmlns="http://www.w3.org/2000/svg" xmlns:xlink="http://www.w3.org/1999/xlink" width="64" height="64" viewBox="0 0 64 64">
  <defs>
    <clipPath id="clip-path">
      <rect id="사각형_1495" data-name="사각형 1495" width="64" height="64" transform="translate(0 0)" fill="none"/>
    </clipPath>
  </defs>
  <g id="그룹_1216" data-name="그룹 1216" transform="translate(0 0)">
    <g id="그룹_1215" data-name="그룹 1215">
      <g id="그룹_1217" data-name="그룹 1217" transform="translate(4 4)">
        <path id="패스_1143" data-name="패스 1143" d="M41.3,11.724,28.309,16.007V26.093a15.97,15.97,0,0,0,7.516,13.549L41.3,43.056l5.473-3.414a15.97,15.97,0,0,0,7.516-13.549V16.007Z" fill="none"    stroke-linecap="round" stroke-linejoin="round" stroke-width="2"/>
        <path id="패스_1144" data-name="패스 1144" d="M36.6,26.749l4.083,4.6L46.745,22.5" fill="none"    stroke-linecap="round" stroke-linejoin="round" stroke-width="2"/>
        <path id="패스_1145" data-name="패스 1145" d="M41.3,49.012V51.63c0,1.439-1.8,2.617-4,2.617H5a4.012,4.012,0,0,1-4-4V5A4.012,4.012,0,0,1,5,1H37.3c2.2,0,4,1.194,4,2.653V6.306" fill="none"    stroke-linecap="round" stroke-linejoin="round" stroke-width="2"/>
        <line id="선_725" data-name="선 725" x2="10.79" transform="translate(8.858 8.874)" fill="none"    stroke-linecap="round" stroke-linejoin="round" stroke-width="2"/>
        <line id="선_726" data-name="선 726" x2="19.451" transform="translate(8.858 18.259)" fill="none"    stroke-linecap="round" stroke-linejoin="round" stroke-width="2"/>
        <line id="선_727" data-name="선 727" x2="19.531" transform="translate(8.858 27.644)" fill="none"    stroke-linecap="round" stroke-linejoin="round" stroke-width="2"/>
        <line id="선_728" data-name="선 728" x2="23.243" transform="translate(8.858 37.029)" fill="none"    stroke-linecap="round" stroke-linejoin="round" stroke-width="2"/>
        <line id="선_729" data-name="선 729" x2="11.239" transform="translate(8.858 46.414)" fill="none"    stroke-linecap="round" stroke-linejoin="round" stroke-width="2"/>
      </g>
    </g>
  </g>
</svg>
