<svg xmlns="http://www.w3.org/2000/svg" xmlns:xlink="http://www.w3.org/1999/xlink" width="64" height="64" viewBox="0 0 64 64">
  <defs>
    <clipPath id="clip-path">
      <rect id="사각형_1492" data-name="사각형 1492" width="64" height="64" transform="translate(0 0)" fill="none"/>
    </clipPath>
  </defs>
  <g id="ic-db" transform="translate(0 0)">
    <g id="그룹_1203" data-name="그룹 1203">
      <g id="그룹_1205" data-name="그룹 1205" transform="translate(10 4)">
        <path id="패스_1135" data-name="패스 1135" d="M36.671,15.882a44.6,44.6,0,0,1-14.338,2.146A44.6,44.6,0,0,1,8,15.882c-4.288-1.5-7-3.665-7-6.076V21.958C1,26.5,10.551,30.18,22.333,30.18S43.667,26.5,43.667,21.958V9.806C43.667,12.217,40.959,14.378,36.671,15.882Z" fill="none"   stroke-width="2"/>
        <path id="패스_1136" data-name="패스 1136" d="M36.671,27.879a44.6,44.6,0,0,1-14.338,2.146A44.6,44.6,0,0,1,8,27.879c-4.288-1.5-7-3.665-7-6.076V33.955c0,4.541,9.551,8.222,21.333,8.222S43.667,38.5,43.667,33.955V21.8C43.667,24.214,40.959,26.375,36.671,27.879Z" fill="none"   stroke-width="2"/>
        <path id="패스_1137" data-name="패스 1137" d="M36.671,40.035a44.6,44.6,0,0,1-14.338,2.146A44.6,44.6,0,0,1,8,40.035c-4.288-1.5-7-3.665-7-6.076V46.111c0,4.541,9.551,8.222,21.333,8.222s21.334-3.681,21.334-8.222V33.959C43.667,36.37,40.959,38.531,36.671,40.035Z" fill="none"   stroke-width="2"/>
        <path id="패스_1138" data-name="패스 1138" d="M22.333,1C10.551,1,1,4.834,1,9.565c0,2.51,2.708,4.762,7,6.328a42.939,42.939,0,0,0,14.337,2.236,42.95,42.95,0,0,0,14.338-2.236c4.287-1.566,6.995-3.818,6.995-6.328C43.666,4.834,34.115,1,22.333,1Z" fill="none"   stroke-width="2"/>
      </g>
    </g>
  </g>
</svg>
