<svg id="ic_stopped" xmlns="http://www.w3.org/2000/svg" xmlns:xlink="http://www.w3.org/1999/xlink" width="10.172" height="20" viewBox="0 0 10.172 20">
  <defs>
    <clipPath id="clip-path">
      <rect id="사각형_1448" data-name="사각형 1448" width="10.172" height="20" fill="none"/>
    </clipPath>
  </defs>
  <g id="그룹_1141" data-name="그룹 1141" clip-path="url(#clip-path)">
    <path id="패스_1113" data-name="패스 1113" d="M3.444,54.335a1.019,1.019,0,0,1-.7-1.074c0-2.465-.013-4.931.011-7.4.014-1.5,0-2.99,0-4.49A5.584,5.584,0,0,0,2.2,42.692a16.954,16.954,0,0,0-.429,2.3.981.981,0,0,1-1.257.805A.668.668,0,0,1,0,45.123a9.583,9.583,0,0,1,.156-1.315,11.664,11.664,0,0,1,.706-2.73A5.682,5.682,0,0,1,1.966,39.32a3.915,3.915,0,0,1,2.327-1.171,4.173,4.173,0,0,1,3.925,1.274A6.687,6.687,0,0,1,9.544,41.79a13.161,13.161,0,0,1,.619,2.99.744.744,0,0,1-.612.928.975.975,0,0,1-1.127-.68c-.107-.4-.119-.809-.189-1.212A7.969,7.969,0,0,0,7.444,41.3c-.018-.032-.04-.062-.061-.094-.047.038-.031.08-.032.116-.011.78-.018,1.561-.031,2.341-.053,3.206-.048,6.413-.047,9.62a.875.875,0,0,1-.465.9.945.945,0,0,1-1-.079.928.928,0,0,1-.336-.833c0-.839,0-1.678,0-2.517,0-1.32,0-2.641,0-3.961,0-.2-.056-.259-.255-.256-.555.008-.555,0-.555.552q0,3.083,0,6.167a.985.985,0,0,1-.754,1.087Z" transform="translate(0.001 -34.335)" fill="#666"/>
    <path id="패스_1114" data-name="패스 1114" d="M34.863,1.641a1.653,1.653,0,1,1,3.305.026,1.653,1.653,0,0,1-3.305-.026" transform="translate(-31.432 0)" fill="#666"/>
  </g>
</svg>
