<svg xmlns="http://www.w3.org/2000/svg" width="1.5" height="7.52" viewBox="0 0 1.5 7.52">
  <path id="패스_352" data-name="패스 352" d="M.946-1.573.787-3.952q-.045-.7-.045-1a.9.9,0,0,1,.216-.643.742.742,0,0,1,.569-.231.572.572,0,0,1,.571.3,2,2,0,0,1,.144.852,6.5,6.5,0,0,1-.035.666L1.994-1.563a1.919,1.919,0,0,1-.149.671.39.39,0,0,1-.377.233.376.376,0,0,1-.373-.226A2.249,2.249,0,0,1,.946-1.573ZM1.5,1.7a.782.782,0,0,1-.529-.2A.688.688,0,0,1,.742.951.714.714,0,0,1,.958.427.719.719,0,0,1,1.487.211a.736.736,0,0,1,.534.216.706.706,0,0,1,.221.524.693.693,0,0,1-.224.546A.76.76,0,0,1,1.5,1.7Z" transform="translate(-0.742 5.824)" fill="#fff"/>
</svg>
