<svg xmlns="http://www.w3.org/2000/svg" xmlns:xlink="http://www.w3.org/1999/xlink" width="48" height="48" viewBox="0 0 48 48">
  <g transform="translate(3.001 3)">
    <path d="M31.224,9.043l-9.742,3.212V19.82a11.976,11.976,0,0,0,5.637,10.161l4.105,2.561,4.1-2.561A11.976,11.976,0,0,0,40.966,19.82V12.255Z" fill="none" stroke="#999" stroke-linecap="round" stroke-linejoin="round" stroke-width="2"/>
    <path d="M27.7,20.312l3.062,3.453,4.545-6.642" fill="none" stroke="#999" stroke-linecap="round" stroke-linejoin="round" stroke-width="2"/>
    <path d="M31.224,37.009v1.963a1.988,1.988,0,0,1-2,1.964H3a2.006,2.006,0,0,1-2-2V3A2.006,2.006,0,0,1,3,1H29.224a2,2,0,0,1,2,1.99V4.98" fill="none" stroke="#999" stroke-linecap="round" stroke-linejoin="round" stroke-width="2"/>
    <line x2="8.093" transform="translate(6.893 6.905)" fill="none" stroke="#999" stroke-linecap="round" stroke-linejoin="round" stroke-width="2"/>
    <line x2="14.589" transform="translate(6.893 13.944)" fill="none" stroke="#999" stroke-linecap="round" stroke-linejoin="round" stroke-width="2"/>
    <line x2="14.648" transform="translate(6.893 20.983)" fill="none" stroke="#999" stroke-linecap="round" stroke-linejoin="round" stroke-width="2"/>
    <line x2="17.432" transform="translate(6.893 28.021)" fill="none" stroke="#999" stroke-linecap="round" stroke-linejoin="round" stroke-width="2"/>
    <line x2="8.43" transform="translate(6.893 35.061)" fill="none" stroke="#999" stroke-linecap="round" stroke-linejoin="round" stroke-width="2"/>
  </g>
</svg>
