<?xml version="1.0" encoding="UTF-8" standalone="no"?>
<!DOCTYPE svg PUBLIC "-//W3C//DTD SVG 1.1//EN" "http://www.w3.org/Graphics/SVG/1.1/DTD/svg11.dtd">
<svg xmlns="http://www.w3.org/2000/svg" version="1.1" viewBox="0.00 0.00 512.00 512.00">
<path fill="#000000" d="
  M 436.54 38.79
  Q 406.72 65.38 385.18 85.44
  C 381.88 88.52 378.73 89.04 374.37 87.17
  Q 338.50 71.79 302.48 56.30
  A 1.20 1.20 0.0 0 0 301.28 56.44
  Q 264.37 84.51 227.18 112.68
  C 219.31 118.64 208.89 106.19 219.07 98.53
  Q 256.30 70.50 293.43 42.34
  C 298.98 38.13 300.96 38.27 306.94 40.83
  Q 341.77 55.73 376.47 70.70
  A 1.18 1.17 -54.1 0 0 377.74 70.49
  L 428.03 24.76
  A 0.44 0.44 0.0 0 0 427.73 23.99
  C 424.01 24.02 419.12 24.66 416.09 22.76
  C 409.00 18.32 412.73 8.31 420.82 8.15
  Q 441.52 7.73 449.00 8.00
  C 456.42 8.27 458.11 13.59 456.85 20.07
  Q 454.66 31.29 452.41 42.50
  Q 451.34 47.84 450.04 49.54
  C 447.65 52.66 443.18 53.38 439.79 51.38
  C 435.16 48.64 435.55 43.78 436.99 39.08
  Q 437.29 38.12 436.54 38.79
  Z"
/>
<path fill="#000000" d="
  M 483.00 247.34
  A 7.90 7.90 0.0 0 1 475.10 255.24
  L 438.40 255.24
  A 7.90 7.90 0.0 0 1 430.50 247.34
  L 430.50 67.14
  A 7.90 7.90 0.0 0 1 438.40 59.24
  L 475.10 59.24
  A 7.90 7.90 0.0 0 1 483.00 67.14
  L 483.00 247.34
  Z
  M 467.00 75.61
  A 0.38 0.38 0.0 0 0 466.62 75.23
  L 446.88 75.23
  A 0.38 0.38 0.0 0 0 446.50 75.61
  L 446.50 238.87
  A 0.38 0.38 0.0 0 0 446.88 239.25
  L 466.62 239.25
  A 0.38 0.38 0.0 0 0 467.00 238.87
  L 467.00 75.61
  Z"
/>
<path fill="#000000" d="
  M 79.51 179.04
  C 58.50 160.40 59.79 127.95 81.73 110.45
  C 107.71 89.73 146.39 104.90 152.76 137.14
  Q 157.52 161.16 138.59 179.33
  A 0.42 0.42 0.0 0 0 138.72 180.02
  Q 177.48 196.48 187.83 237.46
  C 189.75 245.06 191.23 255.23 179.96 255.24
  Q 110.06 255.26 40.17 255.24
  C 32.42 255.24 28.17 252.83 29.23 244.59
  C 33.04 215.12 52.19 191.44 79.32 180.18
  A 0.68 0.68 0.0 0 0 79.51 179.04
  Z
  M 137.75 145.75
  A 28.64 28.64 0.0 0 0 109.11 117.11
  A 28.64 28.64 0.0 0 0 80.47 145.75
  A 28.64 28.64 0.0 0 0 109.11 174.39
  A 28.64 28.64 0.0 0 0 137.75 145.75
  Z
  M 171.58 238.50
  C 164.39 212.45 142.55 193.59 115.80 190.88
  C 84.48 187.71 54.48 207.68 46.75 238.62
  A 0.51 0.51 0.0 0 0 47.24 239.25
  L 171.01 239.25
  A 0.59 0.59 0.0 0 0 171.58 238.50
  Z"
/>
<path fill="#000000" d="
  M 327.00 247.30
  A 7.94 7.94 0.0 0 1 319.06 255.24
  L 282.44 255.24
  A 7.94 7.94 0.0 0 1 274.50 247.30
  L 274.50 115.18
  A 7.94 7.94 0.0 0 1 282.44 107.24
  L 319.06 107.24
  A 7.94 7.94 0.0 0 1 327.00 115.18
  L 327.00 247.30
  Z
  M 311.00 123.67
  A 0.43 0.43 0.0 0 0 310.57 123.24
  L 290.93 123.24
  A 0.43 0.43 0.0 0 0 290.50 123.67
  L 290.50 238.81
  A 0.43 0.43 0.0 0 0 290.93 239.24
  L 310.57 239.24
  A 0.43 0.43 0.0 0 0 311.00 238.81
  L 311.00 123.67
  Z"
/>
<path fill="#000000" d="
  M 405.00 247.28
  A 7.96 7.96 0.0 0 1 397.04 255.24
  L 360.46 255.24
  A 7.96 7.96 0.0 0 1 352.50 247.28
  L 352.50 140.20
  A 7.96 7.96 0.0 0 1 360.46 132.24
  L 397.04 132.24
  A 7.96 7.96 0.0 0 1 405.00 140.20
  L 405.00 247.28
  Z
  M 389.00 148.56
  A 0.31 0.31 0.0 0 0 388.69 148.25
  L 368.81 148.25
  A 0.31 0.31 0.0 0 0 368.50 148.56
  L 368.50 238.94
  A 0.31 0.31 0.0 0 0 368.81 239.25
  L 388.69 239.25
  A 0.31 0.31 0.0 0 0 389.00 238.94
  L 389.00 148.56
  Z"
/>
<path fill="#000000" d="
  M 249.01 246.96
  A 8.28 8.28 0.0 0 1 240.73 255.24
  L 204.55 255.24
  A 8.28 8.28 0.0 0 1 196.27 246.96
  L 196.27 177.28
  A 8.28 8.28 0.0 0 1 204.55 169.00
  L 240.73 169.00
  A 8.28 8.28 0.0 0 1 249.01 177.28
  L 249.01 246.96
  Z
  M 233.01 185.59
  A 0.59 0.59 0.0 0 0 232.42 185.00
  L 212.84 185.00
  A 0.59 0.59 0.0 0 0 212.25 185.59
  L 212.25 238.67
  A 0.59 0.59 0.0 0 0 212.84 239.26
  L 232.42 239.26
  A 0.59 0.59 0.0 0 0 233.01 238.67
  L 233.01 185.59
  Z"
/>
<path fill="#000000" d="
  M 305.39 466.96
  Q 299.37 482.64 293.36 498.34
  C 291.62 502.91 288.35 503.97 283.46 503.98
  Q 254.61 504.02 225.75 503.99
  C 222.38 503.98 219.88 501.16 218.61 497.95
  Q 212.47 482.47 206.61 466.88
  A 1.02 1.01 -2.2 0 0 205.93 466.26
  Q 180.65 459.56 158.00 446.49
  A 2.00 2.00 0.0 0 0 156.19 446.39
  Q 140.88 453.27 125.37 460.00
  C 123.19 460.95 118.91 460.94 117.48 459.52
  Q 96.08 438.29 74.85 416.90
  C 71.77 413.80 71.57 410.63 73.37 406.50
  Q 79.94 391.44 86.64 376.53
  A 1.46 1.45 42.3 0 0 86.57 375.18
  Q 73.36 352.41 66.62 326.95
  A 0.86 0.85 3.6 0 0 66.10 326.37
  Q 49.93 320.12 33.82 313.94
  C 30.22 312.55 29.04 309.27 29.02 305.38
  Q 28.96 292.01 29.02 278.65
  C 29.04 272.51 31.47 269.00 37.73 269.00
  Q 255.54 268.99 473.36 269.00
  C 479.53 269.00 482.95 271.49 482.98 277.74
  Q 483.04 291.71 482.98 305.69
  C 482.96 309.78 481.55 312.58 477.78 314.05
  Q 461.92 320.26 446.00 326.33
  Q 445.49 326.53 445.35 327.06
  Q 438.57 352.45 425.41 375.18
  Q 425.03 375.83 425.34 376.51
  Q 431.17 389.49 436.98 402.70
  C 439.60 408.65 441.71 412.28 436.91 417.14
  Q 416.71 437.54 396.31 457.74
  C 393.72 460.30 390.26 461.67 387.02 460.23
  Q 371.24 453.23 355.72 446.33
  A 1.74 1.72 41.8 0 0 354.15 446.41
  Q 331.46 459.53 306.13 466.31
  Q 305.59 466.45 305.39 466.96
  Z
  M 156.04 285.32
  C 161.21 338.43 204.83 378.06 258.26 377.11
  C 309.26 376.20 351.19 336.40 355.84 285.91
  Q 355.92 285.00 355.00 285.00
  L 156.33 285.00
  A 0.29 0.29 0.0 0 0 156.04 285.32
  Z
  M 354.43 429.05
  A 9.53 6.08 -20.8 0 1 357.75 429.74
  L 387.54 442.99
  A 0.93 0.93 0.0 0 0 388.58 442.79
  L 421.94 409.44
  A 0.81 0.81 0.0 0 0 422.10 408.55
  Q 415.30 393.26 408.53 377.95
  C 407.76 376.21 408.24 372.86 409.39 370.94
  Q 423.84 346.97 430.73 319.84
  C 431.96 315.02 433.91 313.87 438.25 312.20
  Q 452.30 306.79 466.45 301.30
  Q 467.00 301.09 467.00 300.49
  L 467.00 285.50
  Q 467.00 285.00 466.50 285.00
  L 372.52 285.00
  A 0.52 0.52 0.0 0 0 372.00 285.48
  C 366.68 347.18 315.50 394.77 253.01 393.16
  C 193.54 391.62 144.64 345.09 140.10 285.55
  A 0.59 0.59 0.0 0 0 139.51 285.00
  L 45.50 285.00
  Q 45.00 285.00 45.00 285.50
  L 45.00 300.49
  Q 45.00 301.07 45.55 301.28
  Q 60.49 307.05 75.43 312.84
  C 78.55 314.05 80.26 315.97 81.13 319.41
  Q 87.96 346.41 102.20 370.31
  C 104.70 374.50 103.91 376.94 102.08 381.08
  Q 96.03 394.78 89.90 408.56
  Q 89.68 409.06 90.06 409.44
  L 123.43 442.80
  A 0.98 0.98 0.0 0 0 124.53 443.00
  Q 138.74 436.63 153.06 430.32
  C 155.24 429.36 158.80 428.36 160.52 429.42
  Q 185.07 444.49 212.93 451.61
  C 216.03 452.41 218.63 453.74 219.72 456.57
  Q 225.66 472.00 231.70 487.61
  A 0.61 0.61 0.0 0 0 232.27 488.00
  L 279.48 488.00
  A 1.03 1.02 10.3 0 0 280.44 487.34
  Q 286.09 472.32 292.08 457.21
  C 292.93 455.06 294.94 452.63 296.96 452.14
  Q 325.55 445.20 350.65 429.97
  C 351.64 429.37 353.40 429.02 354.43 429.05
  Z"
/>
</svg>
