<svg xmlns="http://www.w3.org/2000/svg" width="24" height="24" viewBox="0 0 24 24">
  <g id="ic-line-사용자권한관리" transform="translate(-1967.418 -207.392)">
    <g id="line">
      <path id="패스_636" data-name="패스 636" d="M1986.191,221.641l-3.455,1.14v2.682a4.248,4.248,0,0,0,2,3.6l1.455.908,1.456-.908a4.249,4.249,0,0,0,2-3.6v-2.682Z" fill="none" stroke="#333" stroke-linecap="round" stroke-linejoin="round" stroke-width="1"/>
      <path id="패스_637" data-name="패스 637" d="M1986.191,223.567l-1.858.612v1.443a2.284,2.284,0,0,0,1.075,1.939l.783.488.783-.488a2.285,2.285,0,0,0,1.076-1.939v-1.443Z" fill="none" stroke="#333" stroke-linecap="round" stroke-linejoin="round" stroke-width="1"/>
      <circle id="타원_174" data-name="타원 174" cx="4" cy="4" r="4" transform="translate(1975.191 208.809)" fill="none" stroke="#333" stroke-linecap="round" stroke-linejoin="round" stroke-width="1"/>
      <path id="패스_638" data-name="패스 638" d="M1969.191,228.808a10,10,0,0,1,14.842-8.751" fill="none" stroke="#333" stroke-linecap="round" stroke-linejoin="round" stroke-width="1"/>
    </g>
  </g>
</svg>
