<svg xmlns="http://www.w3.org/2000/svg" width="24" height="24" viewBox="0 0 24 24">
  <g id="ic-line-계정관리" transform="translate(-2684.488 -107.665)">
    <g id="line">
      <circle id="타원_189" data-name="타원 189" cx="4" cy="4" r="4" transform="translate(2691.904 109.081)" fill="none" stroke="#666" stroke-linecap="round" stroke-linejoin="round" stroke-width="1"/>
      <path id="패스_658" data-name="패스 658" d="M2685.9,129.081a10,10,0,0,1,14.843-8.751" fill="none" stroke="#666" stroke-linecap="round" stroke-linejoin="round" stroke-width="1"/>
      <path id="패스_659" data-name="패스 659" d="M2707.07,126.6v-1.04a.314.314,0,0,0-.313-.314h-.773a.309.309,0,0,1-.287-.207c-.025-.068-.053-.136-.083-.2a.3.3,0,0,1,.055-.344l.494-.494a.339.339,0,0,0,.055-.5l-.736-.735a.312.312,0,0,0-.443,0l-.548.548a.306.306,0,0,1-.345.056c-.066-.03-.133-.058-.2-.083a.307.307,0,0,1-.207-.286v-.774a.314.314,0,0,0-.313-.314h-1.04a.314.314,0,0,0-.314.314V123a.307.307,0,0,1-.207.286c-.068.026-.135.053-.2.083a.3.3,0,0,1-.345-.055l-.549-.549a.312.312,0,0,0-.443,0l-.735.735a.313.313,0,0,0,0,.444l.548.548a.306.306,0,0,1,.056.345c-.03.066-.058.133-.083.2a.306.306,0,0,1-.285.207h-.776a.314.314,0,0,0-.313.314v1.04a.313.313,0,0,0,.313.313h.766a.312.312,0,0,1,.293.2c.026.071.055.141.086.21a.309.309,0,0,1-.063.347l-.488.488a.338.338,0,0,0-.054.5l.735.735a.314.314,0,0,0,.443,0l.548-.547a.306.306,0,0,1,.345-.056c.066.03.133.058.2.083a.309.309,0,0,1,.207.287v.772a.314.314,0,0,0,.314.314h1.04a.314.314,0,0,0,.313-.314v-.772a.309.309,0,0,1,.208-.287c.068-.025.136-.053.2-.083a.306.306,0,0,1,.345.056l.547.547a.314.314,0,0,0,.443,0l.736-.735a.315.315,0,0,0,0-.444l-.541-.54a.311.311,0,0,1-.064-.348c.032-.069.061-.139.087-.211a.31.31,0,0,1,.291-.2h.766A.312.312,0,0,0,2707.07,126.6Z" fill="none" stroke="#666" stroke-linecap="round" stroke-linejoin="round" stroke-width="1"/>
      <circle id="타원_190" data-name="타원 190" cx="1.666" cy="1.666" r="1.666" transform="translate(2701.238 124.416)" fill="none" stroke="#666" stroke-linecap="round" stroke-linejoin="round" stroke-width="1"/>
    </g>
  </g>
</svg>
