<svg xmlns="http://www.w3.org/2000/svg" width="24" height="24" viewBox="0 0 24 24">
  <g id="ic-line-알림시스템" transform="translate(-2684.488 -305.003)">
    <g id="line">
      <path id="패스_668" data-name="패스 668" d="M2705.378,320.232l-1.526-1.859a4.4,4.4,0,0,1-.881-3.793,5.853,5.853,0,0,0,.148-1.312,6.642,6.642,0,0,0-13.263,0,5.867,5.867,0,0,0,.148,1.312,4.4,4.4,0,0,1-.881,3.793l-1.526,1.859a.475.475,0,0,0,.393.77h17A.475.475,0,0,0,2705.378,320.232Z" fill="none" stroke="#666" stroke-linecap="round" stroke-linejoin="round" stroke-width="1"/>
      <path id="패스_669" data-name="패스 669" d="M2698.859,325.089a2.427,2.427,0,0,1-4.743,0" fill="none" stroke="#666" stroke-linecap="round" stroke-linejoin="round" stroke-width="1"/>
    </g>
  </g>
</svg>
