<svg xmlns="http://www.w3.org/2000/svg" width="24" height="24" viewBox="0 0 24 24">
  <g id="ic-line-이벤트실시간조회" transform="translate(-2444.125 -107.665)">
    <g id="line">
      <path id="패스_653" data-name="패스 653" d="M2460.174,120.908l-.824-1a2.373,2.373,0,0,1-.475-2.047,3.188,3.188,0,0,0,.08-.708,3.585,3.585,0,0,0-7.158,0,3.188,3.188,0,0,0,.079.708,2.373,2.373,0,0,1-.475,2.047l-.824,1a.256.256,0,0,0,.213.415h9.172A.256.256,0,0,0,2460.174,120.908Z" fill="none" stroke="#666" stroke-linecap="round" stroke-linejoin="round" stroke-width="1"/>
      <path id="패스_654" data-name="패스 654" d="M2456.656,123.529a1.31,1.31,0,0,1-2.56,0" fill="none" stroke="#666" stroke-linecap="round" stroke-linejoin="round" stroke-width="1"/>
      <circle id="타원_188" data-name="타원 188" cx="9.5" cy="9.5" r="9.5" transform="translate(2445.875 109.665)" fill="none" stroke="#666" stroke-width="1"/>
      <line id="선_446" data-name="선 446" x1="3.994" y1="3.994" transform="translate(2462.381 125.67)" fill="none" stroke="#666" stroke-linecap="round" stroke-linejoin="round" stroke-width="1"/>
    </g>
  </g>
</svg>
