<svg xmlns="http://www.w3.org/2000/svg" width="37.221" height="38.002" viewBox="0 0 37.221 38.002">
  <g transform="translate(-15 -16)" fill="#1a1311">
    <path d="M31.3,5.11a3.323,3.323,0,0,0-2.789-5.1c-.04,0-.078-.012-.117-.012H11.866l-1.4,2.243L.508,18.178a3.34,3.34,0,1,0,5.665,3.539l9.4-15.037h6.874l-5.959,9.538h7.875Z" transform="translate(15 16)" />
    <path d="M36.242,16.113h0a3.339,3.339,0,0,0-4.6,1.063L21.861,32.825H15.512l6.128-9.807H13.763L6.655,34.394a3.33,3.33,0,0,0,2.858,5.1c.026,0,.05.007.076.007H25.564l1.954-3.126L37.3,20.715a3.34,3.34,0,0,0-1.063-4.6" transform="translate(14.408 14.499)" />
  </g>
</svg>
