<svg xmlns="http://www.w3.org/2000/svg" width="97.749" height="30.148" viewBox="0 0 97.749 30.148">
  <g transform="translate(-57.654 -19.928)" fill="#070203">
    <path d="M59.55,22.06H56.422V14.9h-6.1V22.06H47.2V5.361h3.128v6.767h6.1V5.361H59.55Z" transform="translate(10.459 15.484)" />
    <path d="M67.761,17.826l2.085-7.719h3.233L68.542,24.444l-.25.654a3.449,3.449,0,0,1-3.337,2.431,4.335,4.335,0,0,1-1.334-.218V24.8l.459.012a2.29,2.29,0,0,0,1.277-.287,1.868,1.868,0,0,0,.662-.952l.354-1.02L62.422,10.107h3.243Z" transform="translate(8.994 15.028)" />
    <path d="M85.695,15.873a8.069,8.069,0,0,1-1.158,4.65,3.713,3.713,0,0,1-3.232,1.669,3.417,3.417,0,0,1-2.93-1.549l-.136,1.32h-2.71V4.346h3.013v6.319a3.3,3.3,0,0,1,2.742-1.342,3.742,3.742,0,0,1,3.237,1.669,8.082,8.082,0,0,1,1.173,4.7Zm-3.013-.241a5.344,5.344,0,0,0-.542-2.747,1.785,1.785,0,0,0-1.616-.866,1.975,1.975,0,0,0-1.981,1.3v4.9a2,2,0,0,0,2,1.308,1.9,1.9,0,0,0,1.919-1.583,8.973,8.973,0,0,0,.219-2.306" transform="translate(7.732 15.582)" />
    <path d="M95.169,13.191a7.557,7.557,0,0,0-1.085-.092,2.169,2.169,0,0,0-2.241,1.273v8.12H88.83V10.083h2.846l.084,1.479a2.771,2.771,0,0,1,2.513-1.709,2.891,2.891,0,0,1,.938.149Z" transform="translate(6.453 15.052)" />
    <path d="M97.425,6.372a1.716,1.716,0,0,1,.454-1.226,1.818,1.818,0,0,1,2.465,0,1.708,1.708,0,0,1,.458,1.226,1.708,1.708,0,0,1-.464,1.239,1.8,1.8,0,0,1-2.45,0,1.712,1.712,0,0,1-.464-1.239m3.2,15.622H97.6V9.584h3.024Z" transform="translate(5.625 15.551)" />
    <path d="M107.908,13.812l1.9-3.7h3.222l-3.212,6.079,3.347,6.331h-3.232l-2.012-3.9-2,3.9h-3.243l3.348-6.331-3.2-6.079h3.232Z" transform="translate(5.121 15.028)" />
    <path d="M128.374,14.064a10.945,10.945,0,0,1-.793,4.325,6.42,6.42,0,0,1-2.268,2.867,6.179,6.179,0,0,1-6.751.012,6.464,6.464,0,0,1-2.294-2.851,10.609,10.609,0,0,1-.823-4.26v-.826a10.891,10.891,0,0,1,.808-4.341,6.46,6.46,0,0,1,2.283-2.879,6.167,6.167,0,0,1,6.746,0,6.462,6.462,0,0,1,2.284,2.879,10.859,10.859,0,0,1,.808,4.33Zm-3.17-.756a7.591,7.591,0,0,0-.855-3.992A2.863,2.863,0,0,0,119.48,9.3a7.486,7.486,0,0,0-.866,3.951v.813a7.687,7.687,0,0,0,.855,3.969,2.717,2.717,0,0,0,2.46,1.41,2.689,2.689,0,0,0,2.419-1.358,7.641,7.641,0,0,0,.855-3.963Z" transform="translate(3.893 15.509)" />
    <path d="M142.2,16.4A7.987,7.987,0,0,1,141.018,21a3.687,3.687,0,0,1-3.2,1.726,3.375,3.375,0,0,1-2.762-1.308v5.849h-3.013V10.083h2.794l.1,1.216A3.42,3.42,0,0,1,137.8,9.853a3.706,3.706,0,0,1,3.243,1.7,8.22,8.22,0,0,1,1.157,4.68Zm-3.013-.241a5.286,5.286,0,0,0-.558-2.672,1.782,1.782,0,0,0-1.621-.941,1.947,1.947,0,0,0-1.949,1.193v5.081a1.981,1.981,0,0,0,1.969,1.227q2.16,0,2.159-3.888" transform="translate(2.295 15.052)" />
    <path d="M151.4,19.064a1.084,1.084,0,0,0-.547-.958,5.865,5.865,0,0,0-1.758-.625q-4.025-.93-4.025-3.762a3.54,3.54,0,0,1,1.246-2.758,4.725,4.725,0,0,1,3.258-1.106,5.069,5.069,0,0,1,3.435,1.113,3.638,3.638,0,0,1,1.288,2.89h-3.013a1.692,1.692,0,0,0-.417-1.176,1.667,1.667,0,0,0-1.3-.465,1.689,1.689,0,0,0-1.179.379,1.241,1.241,0,0,0-.417.963,1.043,1.043,0,0,0,.474.888,4.607,4.607,0,0,0,1.6.586,12.131,12.131,0,0,1,1.9.556,3.392,3.392,0,0,1,2.387,3.338A3.337,3.337,0,0,1,153,21.673a5.341,5.341,0,0,1-3.42,1.049,5.509,5.509,0,0,1-2.518-.556,4.333,4.333,0,0,1-1.725-1.526,3.785,3.785,0,0,1-.626-2.093h2.858a1.794,1.794,0,0,0,.594,1.353,2.208,2.208,0,0,0,1.481.471,2.036,2.036,0,0,0,1.308-.362,1.162,1.162,0,0,0,.443-.946" transform="translate(1.076 15.052)" />
    <path d="M51.463,35.315a1.856,1.856,0,0,1-.624,1.33,2.192,2.192,0,0,1-1.483.485,1.968,1.968,0,0,1-1.583-.678,2.778,2.778,0,0,1-.578-1.861v-.32a3.144,3.144,0,0,1,.266-1.33,1.993,1.993,0,0,1,.761-.882,2.372,2.372,0,0,1,2.608.178,1.992,1.992,0,0,1,.64,1.363H50.391a1.091,1.091,0,0,0-.282-.736,1.041,1.041,0,0,0-.738-.229.919.919,0,0,0-.808.387,2.174,2.174,0,0,0-.275,1.2v.4a2.316,2.316,0,0,0,.258,1.241.9.9,0,0,0,.811.391,1.067,1.067,0,0,0,.746-.228,1.029,1.029,0,0,0,.282-.707Z" transform="translate(10.459 12.945)" />
    <path d="M53.738,36.2h2.29v.867H52.66V31.832h1.078Z" transform="translate(9.934 12.937)" />
    <path d="M61.058,34.56a3.163,3.163,0,0,1-.273,1.355,2.06,2.06,0,0,1-.783.9,2.31,2.31,0,0,1-2.327,0,2.08,2.08,0,0,1-.791-.894,3.072,3.072,0,0,1-.285-1.336V34.33a3.14,3.14,0,0,1,.279-1.361,2.069,2.069,0,0,1,.787-.9,2.308,2.308,0,0,1,2.326,0,2.08,2.08,0,0,1,.787.9,3.142,3.142,0,0,1,.278,1.357Zm-1.093-.238a2.2,2.2,0,0,0-.3-1.251,1.041,1.041,0,0,0-1.678-.006,2.172,2.172,0,0,0-.3,1.239v.256a2.233,2.233,0,0,0,.295,1.244,1.032,1.032,0,0,0,1.682.016,2.22,2.22,0,0,0,.3-1.243Z" transform="translate(9.555 12.945)" />
    <path d="M66.316,31.831v3.448a1.767,1.767,0,0,1-.537,1.359,2.419,2.419,0,0,1-2.925.014,1.732,1.732,0,0,1-.55-1.334V31.831h1.078v3.455a1,1,0,0,0,.247.749.943.943,0,0,0,.681.236q.91,0,.925-.956V31.831Z" transform="translate(9.006 12.937)" />
    <path d="M67.681,37.066V31.831h1.611a2.447,2.447,0,0,1,1.235.311,2.17,2.17,0,0,1,.85.885,2.723,2.723,0,0,1,.305,1.3v.24a2.742,2.742,0,0,1-.3,1.3,2.16,2.16,0,0,1-.847.88,2.455,2.455,0,0,1-1.233.316ZM68.759,32.7V36.2h.521a1.17,1.17,0,0,0,.967-.414,1.865,1.865,0,0,0,.342-1.183v-.277a1.9,1.9,0,0,0-.331-1.21,1.169,1.169,0,0,0-.967-.411Z" transform="translate(8.488 12.937)" />
    <path d="M77.615,35.685a.552.552,0,0,0-.216-.469,2.814,2.814,0,0,0-.776-.345,5.524,5.524,0,0,1-.888-.358,1.45,1.45,0,0,1-.891-1.3,1.264,1.264,0,0,1,.239-.756,1.555,1.555,0,0,1,.687-.52,2.583,2.583,0,0,1,1-.187,2.354,2.354,0,0,1,1,.2,1.59,1.59,0,0,1,.681.573,1.5,1.5,0,0,1,.242.841H77.618a.708.708,0,0,0-.227-.559.932.932,0,0,0-.636-.2.99.99,0,0,0-.615.167.526.526,0,0,0-.22.44.505.505,0,0,0,.257.427,2.876,2.876,0,0,0,.757.324,3.287,3.287,0,0,1,1.341.687,1.369,1.369,0,0,1,.42,1.021,1.258,1.258,0,0,1-.514,1.066,2.251,2.251,0,0,1-1.384.387,2.676,2.676,0,0,1-1.1-.221,1.736,1.736,0,0,1-.756-.606,1.555,1.555,0,0,1-.26-.892h1.082q0,.868,1.036.867a1.008,1.008,0,0,0,.6-.156.508.508,0,0,0,.216-.437" transform="translate(7.814 12.945)" />
    <path d="M83.04,34.8H80.969v1.4H83.4v.866H79.89V31.831h3.5V32.7H80.969v1.247H83.04Z" transform="translate(7.313 12.937)" />
    <path d="M88.526,35.315a1.856,1.856,0,0,1-.624,1.33,2.192,2.192,0,0,1-1.483.485,1.968,1.968,0,0,1-1.583-.678,2.778,2.778,0,0,1-.578-1.861v-.32a3.144,3.144,0,0,1,.266-1.33,1.993,1.993,0,0,1,.761-.882,2.372,2.372,0,0,1,2.608.178,1.992,1.992,0,0,1,.64,1.363H87.454a1.091,1.091,0,0,0-.282-.736,1.041,1.041,0,0,0-.738-.229.919.919,0,0,0-.808.387,2.174,2.174,0,0,0-.275,1.2v.4a2.316,2.316,0,0,0,.258,1.241.9.9,0,0,0,.811.391,1.067,1.067,0,0,0,.746-.228,1.029,1.029,0,0,0,.282-.707Z" transform="translate(6.893 12.945)" />
    <path d="M93.679,31.831v3.448a1.767,1.767,0,0,1-.537,1.359,2.419,2.419,0,0,1-2.925.014,1.732,1.732,0,0,1-.55-1.334V31.831h1.078v3.455a1,1,0,0,0,.247.749.943.943,0,0,0,.681.236q.91,0,.925-.956V31.831Z" transform="translate(6.373 12.937)" />
    <path d="M96.982,35.15h-.859v1.916H95.045V31.831H96.99a2.2,2.2,0,0,1,1.431.413,1.431,1.431,0,0,1,.5,1.169,1.618,1.618,0,0,1-.232.894,1.58,1.58,0,0,1-.7.569l1.132,2.139v.051H97.963Zm-.859-.874h.87a.888.888,0,0,0,.628-.207.737.737,0,0,0,.224-.569.794.794,0,0,0-.211-.583.872.872,0,0,0-.644-.211h-.867Z" transform="translate(5.855 12.937)" />
    <rect width="1.079" height="5.235" transform="translate(105.629 44.769)" />
    <path d="M106.327,32.705h-1.6v4.361h-1.079V32.705h-1.582v-.874h4.264Z" transform="translate(5.18 12.937)" />
    <path d="M109.24,34.19l1.089-2.358h1.179l-1.719,3.336v1.9h-1.1v-1.9l-1.718-3.336h1.183Z" transform="translate(4.707 12.937)" />
    <path d="M115.546,35.222v1.845h-1.078V31.832h2.042a2.365,2.365,0,0,1,1.038.215,1.584,1.584,0,0,1,.688.613,1.71,1.71,0,0,1,.241.9,1.506,1.506,0,0,1-.526,1.214,2.2,2.2,0,0,1-1.458.444Zm0-.874h.963a.943.943,0,0,0,.653-.2.729.729,0,0,0,.224-.575.859.859,0,0,0-.226-.622.849.849,0,0,0-.625-.245h-.989Z" transform="translate(3.986 12.937)" />
    <path d="M120.76,36.2h2.29v.867h-3.368V31.832h1.078Z" transform="translate(3.484 12.937)" />
    <path d="M127.036,35.987h-1.891l-.361,1.078h-1.146l1.948-5.235h1l1.959,5.235H127.4Zm-1.6-.874h1.309l-.658-1.959Z" transform="translate(3.104 12.937)" />
    <path d="M133,32.705h-1.6v4.361h-1.079V32.705h-1.582v-.874H133Z" transform="translate(2.613 12.937)" />
    <path d="M137.24,34.927H135.17v2.139h-1.078V31.831H137.5v.874h-2.33v1.351h2.071Z" transform="translate(2.098 12.937)" />
    <path d="M142.8,34.56a3.15,3.15,0,0,1-.273,1.355,2.058,2.058,0,0,1-.782.9,2.311,2.311,0,0,1-2.328,0,2.086,2.086,0,0,1-.791-.894,3.059,3.059,0,0,1-.284-1.336V34.33a3.14,3.14,0,0,1,.278-1.361,2.076,2.076,0,0,1,.788-.9,2.306,2.306,0,0,1,2.325,0,2.08,2.08,0,0,1,.787.9,3.129,3.129,0,0,1,.278,1.357Zm-1.093-.238a2.2,2.2,0,0,0-.295-1.251,1.042,1.042,0,0,0-1.679-.006,2.179,2.179,0,0,0-.3,1.239v.256a2.225,2.225,0,0,0,.3,1.244,1.032,1.032,0,0,0,1.682.016,2.213,2.213,0,0,0,.295-1.243Z" transform="translate(1.689 12.945)" />
    <path d="M146.036,35.15h-.859v1.916H144.1V31.831h1.945a2.2,2.2,0,0,1,1.431.413,1.425,1.425,0,0,1,.5,1.169,1.611,1.611,0,0,1-.231.894,1.578,1.578,0,0,1-.7.569l1.133,2.139v.051h-1.159Zm-.859-.874h.87a.889.889,0,0,0,.629-.207.737.737,0,0,0,.223-.569.794.794,0,0,0-.211-.583.877.877,0,0,0-.645-.211h-.867Z" transform="translate(1.135 12.937)" />
    <path d="M150.666,31.831l1.344,3.8,1.339-3.8h1.416v5.235h-1.083V35.635l.108-2.47-1.413,3.9h-.74l-1.41-3.9.108,2.466v1.431h-1.077V31.831Z" transform="translate(0.639 12.937)" />
  </g>
</svg>
