<?xml version="1.0" encoding="UTF-8"?><svg id="uuid-a7630433-1d9e-4ab7-afcc-a7c20471b61a" xmlns="http://www.w3.org/2000/svg" viewBox="0 0 132.81 42.05"><defs><style>.uuid-26e20df6-7abd-4e73-b310-e15f189bcf00{fill:#231815;}.uuid-26e20df6-7abd-4e73-b310-e15f189bcf00,.uuid-54357e64-fe1e-48bb-82ed-52263af54e70{stroke-width:0px;}</style></defs><g id="uuid-fb93d894-6931-4c6e-86db-32ab4a762e51"><path class="uuid-26e20df6-7abd-4e73-b310-e15f189bcf00" d="m48.16,7.28c0-.55.17-1,.5-1.36.33-.35.79-.53,1.37-.53s1.02.18,1.36.53c.34.36.51.81.51,1.36s-.17,1.02-.51,1.37c-.34.36-.79.53-1.36.53s-1.01-.18-1.36-.53-.51-.81-.51-1.37Zm3.54,17.28h-3.35v-13.73h3.35v13.73Z"/><path class="uuid-26e20df6-7abd-4e73-b310-e15f189bcf00" d="m69.98,18.13h-6.5v-2.96h6.5v2.96Z"/><path class="uuid-26e20df6-7abd-4e73-b310-e15f189bcf00" d="m85.59,21.5h8.47v3.06h-12.79v-2.23l8.31-13.16h-8.29v-3.08h12.6v2.18l-8.28,13.24Z"/><path class="uuid-26e20df6-7abd-4e73-b310-e15f189bcf00" d="m103.11,24.81c-1.83,0-3.32-.62-4.47-1.85-1.15-1.23-1.72-2.88-1.72-4.94v-.35c0-1.38.24-2.61.73-3.7.48-1.09,1.17-1.92,2.06-2.51.89-.59,1.9-.88,3.04-.88,1.71,0,3.05.59,4.03,1.78.98,1.18,1.47,2.86,1.47,5.04v1.5h-7.95c.11.9.43,1.62.97,2.16.54.54,1.23.81,2.06.81,1.28,0,2.29-.51,3.01-1.54l1.64,2.02c-.5.78-1.18,1.39-2.03,1.82-.85.44-1.8.65-2.84.65Zm-.38-11.28c-.66,0-1.2.25-1.61.74-.41.49-.67,1.2-.79,2.12h4.64v-.29c-.02-.82-.22-1.45-.6-1.89-.38-.45-.93-.67-1.64-.67Z"/><path class="uuid-26e20df6-7abd-4e73-b310-e15f189bcf00" d="m118.73,14.27c-.45-.07-.85-.1-1.2-.1-1.26,0-2.09.47-2.48,1.41v8.98h-3.33v-13.73h3.15l.09,1.64c.67-1.26,1.6-1.89,2.78-1.89.37,0,.71.06,1.04.17l-.05,3.53Z"/><path class="uuid-26e20df6-7abd-4e73-b310-e15f189bcf00" d="m120.98,17.57c0-1.36.24-2.58.71-3.64.48-1.07,1.16-1.89,2.06-2.47.9-.58,1.94-.88,3.12-.88,1.68,0,3.06.57,4.12,1.7s1.66,2.67,1.78,4.62l.02.94c0,2.11-.54,3.8-1.6,5.07-1.07,1.27-2.5,1.91-4.3,1.91s-3.24-.63-4.31-1.9-1.61-2.99-1.61-5.18v-.17Zm3.33.26c0,1.3.22,2.3.67,2.99s1.08,1.04,1.92,1.04,1.44-.34,1.89-1.02c.45-.68.68-1.77.68-3.27,0-1.28-.23-2.27-.68-2.97-.45-.7-1.09-1.05-1.92-1.05s-1.45.35-1.89,1.05c-.45.7-.67,1.78-.67,3.25Z"/><path class="uuid-26e20df6-7abd-4e73-b310-e15f189bcf00" d="m48.71,36.65h2.96v.97h-4.48v-.71l2.91-4.19h-2.9v-.98h4.41v.69l-2.9,4.21Z"/><path class="uuid-26e20df6-7abd-4e73-b310-e15f189bcf00" d="m55.56,35.07h-2.33v1.58h2.73v.97h-3.94v-5.88h3.93v.98h-2.72v1.4h2.33v.95Z"/><path class="uuid-26e20df6-7abd-4e73-b310-e15f189bcf00" d="m58.44,35.47h-.97v2.15h-1.21v-5.88h2.18c.69,0,1.23.15,1.61.46s.57.75.57,1.31c0,.4-.09.74-.26,1-.17.27-.44.48-.79.64l1.27,2.4v.06h-1.3l-1.1-2.15Zm-.97-.98h.98c.3,0,.54-.08.71-.23.17-.15.25-.37.25-.64s-.08-.5-.24-.65c-.16-.16-.4-.24-.72-.24h-.97v1.76Z"/><path class="uuid-26e20df6-7abd-4e73-b310-e15f189bcf00" d="m65.96,34.82c0,.58-.1,1.09-.31,1.52-.21.44-.5.77-.88,1.01-.38.24-.82.35-1.31.35s-.92-.12-1.3-.35c-.38-.23-.68-.57-.89-1-.21-.44-.32-.94-.32-1.5v-.29c0-.58.1-1.09.31-1.53.21-.44.5-.78.88-1.01.38-.24.82-.35,1.31-.35s.93.12,1.31.35c.38.24.68.57.88,1.01.21.44.31.95.31,1.52v.26Zm-1.23-.27c0-.62-.11-1.08-.33-1.41s-.54-.48-.95-.48-.72.16-.94.47c-.22.32-.33.78-.33,1.39v.29c0,.6.11,1.07.33,1.4.22.33.54.5.95.5s.72-.16.94-.48c.22-.32.33-.78.33-1.4v-.29Z"/><path class="uuid-26e20df6-7abd-4e73-b310-e15f189bcf00" d="m72.25,32.72h-1.8v4.9h-1.21v-4.9h-1.78v-.98h4.79v.98Z"/><path class="uuid-26e20df6-7abd-4e73-b310-e15f189bcf00" d="m74.71,35.47h-.96v2.15h-1.21v-5.88h2.19c.69,0,1.23.15,1.61.46s.57.75.57,1.31c0,.4-.09.74-.26,1-.17.27-.44.48-.79.64l1.27,2.4v.06h-1.3l-1.1-2.15Zm-.96-.98h.98c.3,0,.54-.08.71-.23.17-.15.25-.37.25-.64s-.08-.5-.24-.65c-.16-.16-.4-.24-.72-.24h-.97v1.76Z"/><path class="uuid-26e20df6-7abd-4e73-b310-e15f189bcf00" d="m81.85,31.74v3.87c0,.64-.2,1.15-.6,1.53-.4.37-.95.56-1.65.56s-1.23-.18-1.63-.54c-.4-.36-.61-.86-.62-1.5v-3.92h1.21v3.88c0,.39.09.67.28.84.18.18.44.26.76.26.68,0,1.03-.36,1.04-1.07v-3.91h1.22Z"/><path class="uuid-26e20df6-7abd-4e73-b310-e15f189bcf00" d="m85.47,36.08c0-.23-.08-.4-.24-.53-.16-.12-.45-.25-.87-.39-.42-.14-.75-.27-1-.4-.67-.36-1-.85-1-1.46,0-.32.09-.6.27-.85.18-.25.44-.44.77-.58.33-.14.71-.21,1.13-.21s.79.08,1.12.23c.33.15.58.37.77.64s.27.59.27.94h-1.21c0-.27-.08-.48-.25-.63-.17-.15-.41-.22-.71-.22s-.53.06-.69.19c-.17.12-.25.29-.25.49,0,.19.1.35.29.48s.48.25.85.36c.69.21,1.19.46,1.51.77.31.31.47.69.47,1.15,0,.51-.19.91-.58,1.2-.38.29-.9.43-1.55.43-.45,0-.86-.08-1.24-.25-.37-.17-.66-.39-.85-.68s-.29-.62-.29-1h1.21c0,.65.39.97,1.16.97.29,0,.51-.06.67-.18.16-.12.24-.28.24-.49Z"/><path class="uuid-26e20df6-7abd-4e73-b310-e15f189bcf00" d="m91.52,32.72h-1.8v4.9h-1.21v-4.9h-1.78v-.98h4.79v.98Z"/><path class="uuid-26e20df6-7abd-4e73-b310-e15f189bcf00" d="m94.41,35.55v2.07h-1.21v-5.88h2.29c.44,0,.83.08,1.17.24s.59.39.77.69c.18.3.27.64.27,1.02,0,.58-.2,1.03-.59,1.36-.39.33-.94.5-1.64.5h-1.06Zm0-.98h1.08c.32,0,.56-.08.73-.23.17-.15.25-.37.25-.65s-.08-.52-.25-.7c-.17-.18-.4-.27-.7-.27h-1.11v1.85Z"/><path class="uuid-26e20df6-7abd-4e73-b310-e15f189bcf00" d="m99.34,36.65h2.57v.97h-3.78v-5.88h1.21v4.91Z"/><path class="uuid-26e20df6-7abd-4e73-b310-e15f189bcf00" d="m105.59,36.41h-2.12l-.4,1.21h-1.29l2.19-5.88h1.12l2.2,5.88h-1.29l-.41-1.21Zm-1.8-.98h1.47l-.74-2.2-.73,2.2Z"/><path class="uuid-26e20df6-7abd-4e73-b310-e15f189bcf00" d="m111.36,32.72h-1.8v4.9h-1.21v-4.9h-1.78v-.98h4.79v.98Z"/><path class="uuid-26e20df6-7abd-4e73-b310-e15f189bcf00" d="m115.17,35.22h-2.33v2.4h-1.21v-5.88h3.83v.98h-2.62v1.52h2.33v.98Z"/><path class="uuid-26e20df6-7abd-4e73-b310-e15f189bcf00" d="m117.93,35.47h-.97v2.15h-1.21v-5.88h2.18c.69,0,1.23.15,1.61.46s.57.75.57,1.31c0,.4-.09.74-.26,1-.17.27-.44.48-.79.64l1.27,2.4v.06h-1.3l-1.1-2.15Zm-.97-.98h.98c.3,0,.54-.08.71-.23.17-.15.25-.37.25-.64s-.08-.5-.24-.65c-.16-.16-.4-.24-.72-.24h-.97v1.76Z"/><path class="uuid-26e20df6-7abd-4e73-b310-e15f189bcf00" d="m125.45,34.82c0,.58-.1,1.09-.31,1.52-.2.44-.5.77-.88,1.01-.38.24-.82.35-1.31.35s-.92-.12-1.3-.35c-.38-.23-.68-.57-.89-1-.21-.44-.32-.94-.32-1.5v-.29c0-.58.1-1.09.31-1.53.21-.44.5-.78.88-1.01.38-.24.82-.35,1.31-.35s.92.12,1.31.35c.38.24.68.57.88,1.01.21.44.31.95.31,1.52v.26Zm-1.23-.27c0-.62-.11-1.08-.33-1.41s-.54-.48-.94-.48-.72.16-.94.47c-.22.32-.33.78-.33,1.39v.29c0,.6.11,1.07.33,1.4.22.33.54.5.95.5s.72-.16.94-.48c.22-.32.33-.78.33-1.4v-.29Z"/><path class="uuid-26e20df6-7abd-4e73-b310-e15f189bcf00" d="m127.5,31.74l1.51,4.26,1.5-4.26h1.59v5.88h-1.22v-1.61l.12-2.77-1.59,4.38h-.83l-1.58-4.38.12,2.77v1.61h-1.21v-5.88h1.58Z"/><path class="uuid-54357e64-fe1e-48bb-82ed-52263af54e70" d="m34.63,5.65c1.08-1.73.56-4.01-1.18-5.09-.6-.37-1.26-.54-1.91-.55-.04,0-.09-.01-.13-.01h-9.74s-8.54,0-8.54,0l-1.55,2.48L.56,20.11c-1.08,1.73-.56,4.01,1.18,5.09h0c1.73,1.08,4.01.56,5.09-1.18L17.23,7.39h7.61s-6.59,10.55-6.59,10.55h8.71l7.68-12.29Z"/><path class="uuid-54357e64-fe1e-48bb-82ed-52263af54e70" d="m39.45,16.17h0c-1.73-1.08-4.01-.56-5.09,1.18l-10.82,17.32h-7.03s6.78-10.85,6.78-10.85h-8.71l-7.87,12.59c-1.08,1.73-.56,4.01,1.18,5.09h0c.62.39,1.31.56,1.99.55.03,0,.05,0,.08,0h10.21s7.46,0,7.46,0l2.16-3.46,10.83-17.33c1.08-1.73.56-4.01-1.18-5.09Z"/></g></svg>
<?xml version="1.0" encoding="UTF-8"?><svg id="uuid-a7630433-1d9e-4ab7-afcc-a7c20471b61a" xmlns="http://www.w3.org/2000/svg" viewBox="0 0 132.81 42.05"><defs><style>.uuid-26e20df6-7abd-4e73-b310-e15f189bcf00{fill:#231815;}.uuid-26e20df6-7abd-4e73-b310-e15f189bcf00,.uuid-54357e64-fe1e-48bb-82ed-52263af54e70{stroke-width:0px;}</style></defs><g id="uuid-fb93d894-6931-4c6e-86db-32ab4a762e51"><path class="uuid-26e20df6-7abd-4e73-b310-e15f189bcf00" d="m48.16,7.28c0-.55.17-1,.5-1.36.33-.35.79-.53,1.37-.53s1.02.18,1.36.53c.34.36.51.81.51,1.36s-.17,1.02-.51,1.37c-.34.36-.79.53-1.36.53s-1.01-.18-1.36-.53-.51-.81-.51-1.37Zm3.54,17.28h-3.35v-13.73h3.35v13.73Z"/><path class="uuid-26e20df6-7abd-4e73-b310-e15f189bcf00" d="m69.98,18.13h-6.5v-2.96h6.5v2.96Z"/><path class="uuid-26e20df6-7abd-4e73-b310-e15f189bcf00" d="m85.59,21.5h8.47v3.06h-12.79v-2.23l8.31-13.16h-8.29v-3.08h12.6v2.18l-8.28,13.24Z"/><path class="uuid-26e20df6-7abd-4e73-b310-e15f189bcf00" d="m103.11,24.81c-1.83,0-3.32-.62-4.47-1.85-1.15-1.23-1.72-2.88-1.72-4.94v-.35c0-1.38.24-2.61.73-3.7.48-1.09,1.17-1.92,2.06-2.51.89-.59,1.9-.88,3.04-.88,1.71,0,3.05.59,4.03,1.78.98,1.18,1.47,2.86,1.47,5.04v1.5h-7.95c.11.9.43,1.62.97,2.16.54.54,1.23.81,2.06.81,1.28,0,2.29-.51,3.01-1.54l1.64,2.02c-.5.78-1.18,1.39-2.03,1.82-.85.44-1.8.65-2.84.65Zm-.38-11.28c-.66,0-1.2.25-1.61.74-.41.49-.67,1.2-.79,2.12h4.64v-.29c-.02-.82-.22-1.45-.6-1.89-.38-.45-.93-.67-1.64-.67Z"/><path class="uuid-26e20df6-7abd-4e73-b310-e15f189bcf00" d="m118.73,14.27c-.45-.07-.85-.1-1.2-.1-1.26,0-2.09.47-2.48,1.41v8.98h-3.33v-13.73h3.15l.09,1.64c.67-1.26,1.6-1.89,2.78-1.89.37,0,.71.06,1.04.17l-.05,3.53Z"/><path class="uuid-26e20df6-7abd-4e73-b310-e15f189bcf00" d="m120.98,17.57c0-1.36.24-2.58.71-3.64.48-1.07,1.16-1.89,2.06-2.47.9-.58,1.94-.88,3.12-.88,1.68,0,3.06.57,4.12,1.7s1.66,2.67,1.78,4.62l.02.94c0,2.11-.54,3.8-1.6,5.07-1.07,1.27-2.5,1.91-4.3,1.91s-3.24-.63-4.31-1.9-1.61-2.99-1.61-5.18v-.17Zm3.33.26c0,1.3.22,2.3.67,2.99s1.08,1.04,1.92,1.04,1.44-.34,1.89-1.02c.45-.68.68-1.77.68-3.27,0-1.28-.23-2.27-.68-2.97-.45-.7-1.09-1.05-1.92-1.05s-1.45.35-1.89,1.05c-.45.7-.67,1.78-.67,3.25Z"/><path class="uuid-26e20df6-7abd-4e73-b310-e15f189bcf00" d="m48.71,36.65h2.96v.97h-4.48v-.71l2.91-4.19h-2.9v-.98h4.41v.69l-2.9,4.21Z"/><path class="uuid-26e20df6-7abd-4e73-b310-e15f189bcf00" d="m55.56,35.07h-2.33v1.58h2.73v.97h-3.94v-5.88h3.93v.98h-2.72v1.4h2.33v.95Z"/><path class="uuid-26e20df6-7abd-4e73-b310-e15f189bcf00" d="m58.44,35.47h-.97v2.15h-1.21v-5.88h2.18c.69,0,1.23.15,1.61.46s.57.75.57,1.31c0,.4-.09.74-.26,1-.17.27-.44.48-.79.64l1.27,2.4v.06h-1.3l-1.1-2.15Zm-.97-.98h.98c.3,0,.54-.08.71-.23.17-.15.25-.37.25-.64s-.08-.5-.24-.65c-.16-.16-.4-.24-.72-.24h-.97v1.76Z"/><path class="uuid-26e20df6-7abd-4e73-b310-e15f189bcf00" d="m65.96,34.82c0,.58-.1,1.09-.31,1.52-.21.44-.5.77-.88,1.01-.38.24-.82.35-1.31.35s-.92-.12-1.3-.35c-.38-.23-.68-.57-.89-1-.21-.44-.32-.94-.32-1.5v-.29c0-.58.1-1.09.31-1.53.21-.44.5-.78.88-1.01.38-.24.82-.35,1.31-.35s.93.12,1.31.35c.38.24.68.57.88,1.01.21.44.31.95.31,1.52v.26Zm-1.23-.27c0-.62-.11-1.08-.33-1.41s-.54-.48-.95-.48-.72.16-.94.47c-.22.32-.33.78-.33,1.39v.29c0,.6.11,1.07.33,1.4.22.33.54.5.95.5s.72-.16.94-.48c.22-.32.33-.78.33-1.4v-.29Z"/><path class="uuid-26e20df6-7abd-4e73-b310-e15f189bcf00" d="m72.25,32.72h-1.8v4.9h-1.21v-4.9h-1.78v-.98h4.79v.98Z"/><path class="uuid-26e20df6-7abd-4e73-b310-e15f189bcf00" d="m74.71,35.47h-.96v2.15h-1.21v-5.88h2.19c.69,0,1.23.15,1.61.46s.57.75.57,1.31c0,.4-.09.74-.26,1-.17.27-.44.48-.79.64l1.27,2.4v.06h-1.3l-1.1-2.15Zm-.96-.98h.98c.3,0,.54-.08.71-.23.17-.15.25-.37.25-.64s-.08-.5-.24-.65c-.16-.16-.4-.24-.72-.24h-.97v1.76Z"/><path class="uuid-26e20df6-7abd-4e73-b310-e15f189bcf00" d="m81.85,31.74v3.87c0,.64-.2,1.15-.6,1.53-.4.37-.95.56-1.65.56s-1.23-.18-1.63-.54c-.4-.36-.61-.86-.62-1.5v-3.92h1.21v3.88c0,.39.09.67.28.84.18.18.44.26.76.26.68,0,1.03-.36,1.04-1.07v-3.91h1.22Z"/><path class="uuid-26e20df6-7abd-4e73-b310-e15f189bcf00" d="m85.47,36.08c0-.23-.08-.4-.24-.53-.16-.12-.45-.25-.87-.39-.42-.14-.75-.27-1-.4-.67-.36-1-.85-1-1.46,0-.32.09-.6.27-.85.18-.25.44-.44.77-.58.33-.14.71-.21,1.13-.21s.79.08,1.12.23c.33.15.58.37.77.64s.27.59.27.94h-1.21c0-.27-.08-.48-.25-.63-.17-.15-.41-.22-.71-.22s-.53.06-.69.19c-.17.12-.25.29-.25.49,0,.19.1.35.29.48s.48.25.85.36c.69.21,1.19.46,1.51.77.31.31.47.69.47,1.15,0,.51-.19.91-.58,1.2-.38.29-.9.43-1.55.43-.45,0-.86-.08-1.24-.25-.37-.17-.66-.39-.85-.68s-.29-.62-.29-1h1.21c0,.65.39.97,1.16.97.29,0,.51-.06.67-.18.16-.12.24-.28.24-.49Z"/><path class="uuid-26e20df6-7abd-4e73-b310-e15f189bcf00" d="m91.52,32.72h-1.8v4.9h-1.21v-4.9h-1.78v-.98h4.79v.98Z"/><path class="uuid-26e20df6-7abd-4e73-b310-e15f189bcf00" d="m94.41,35.55v2.07h-1.21v-5.88h2.29c.44,0,.83.08,1.17.24s.59.39.77.69c.18.3.27.64.27,1.02,0,.58-.2,1.03-.59,1.36-.39.33-.94.5-1.64.5h-1.06Zm0-.98h1.08c.32,0,.56-.08.73-.23.17-.15.25-.37.25-.65s-.08-.52-.25-.7c-.17-.18-.4-.27-.7-.27h-1.11v1.85Z"/><path class="uuid-26e20df6-7abd-4e73-b310-e15f189bcf00" d="m99.34,36.65h2.57v.97h-3.78v-5.88h1.21v4.91Z"/><path class="uuid-26e20df6-7abd-4e73-b310-e15f189bcf00" d="m105.59,36.41h-2.12l-.4,1.21h-1.29l2.19-5.88h1.12l2.2,5.88h-1.29l-.41-1.21Zm-1.8-.98h1.47l-.74-2.2-.73,2.2Z"/><path class="uuid-26e20df6-7abd-4e73-b310-e15f189bcf00" d="m111.36,32.72h-1.8v4.9h-1.21v-4.9h-1.78v-.98h4.79v.98Z"/><path class="uuid-26e20df6-7abd-4e73-b310-e15f189bcf00" d="m115.17,35.22h-2.33v2.4h-1.21v-5.88h3.83v.98h-2.62v1.52h2.33v.98Z"/><path class="uuid-26e20df6-7abd-4e73-b310-e15f189bcf00" d="m117.93,35.47h-.97v2.15h-1.21v-5.88h2.18c.69,0,1.23.15,1.61.46s.57.75.57,1.31c0,.4-.09.74-.26,1-.17.27-.44.48-.79.64l1.27,2.4v.06h-1.3l-1.1-2.15Zm-.97-.98h.98c.3,0,.54-.08.71-.23.17-.15.25-.37.25-.64s-.08-.5-.24-.65c-.16-.16-.4-.24-.72-.24h-.97v1.76Z"/><path class="uuid-26e20df6-7abd-4e73-b310-e15f189bcf00" d="m125.45,34.82c0,.58-.1,1.09-.31,1.52-.2.44-.5.77-.88,1.01-.38.24-.82.35-1.31.35s-.92-.12-1.3-.35c-.38-.23-.68-.57-.89-1-.21-.44-.32-.94-.32-1.5v-.29c0-.58.1-1.09.31-1.53.21-.44.5-.78.88-1.01.38-.24.82-.35,1.31-.35s.92.12,1.31.35c.38.24.68.57.88,1.01.21.44.31.95.31,1.52v.26Zm-1.23-.27c0-.62-.11-1.08-.33-1.41s-.54-.48-.94-.48-.72.16-.94.47c-.22.32-.33.78-.33,1.39v.29c0,.6.11,1.07.33,1.4.22.33.54.5.95.5s.72-.16.94-.48c.22-.32.33-.78.33-1.4v-.29Z"/><path class="uuid-26e20df6-7abd-4e73-b310-e15f189bcf00" d="m127.5,31.74l1.51,4.26,1.5-4.26h1.59v5.88h-1.22v-1.61l.12-2.77-1.59,4.38h-.83l-1.58-4.38.12,2.77v1.61h-1.21v-5.88h1.58Z"/><path class="uuid-54357e64-fe1e-48bb-82ed-52263af54e70" d="m34.63,5.65c1.08-1.73.56-4.01-1.18-5.09-.6-.37-1.26-.54-1.91-.55-.04,0-.09-.01-.13-.01h-9.74s-8.54,0-8.54,0l-1.55,2.48L.56,20.11c-1.08,1.73-.56,4.01,1.18,5.09h0c1.73,1.08,4.01.56,5.09-1.18L17.23,7.39h7.61s-6.59,10.55-6.59,10.55h8.71l7.68-12.29Z"/><path class="uuid-54357e64-fe1e-48bb-82ed-52263af54e70" d="m39.45,16.17h0c-1.73-1.08-4.01-.56-5.09,1.18l-10.82,17.32h-7.03s6.78-10.85,6.78-10.85h-8.71l-7.87,12.59c-1.08,1.73-.56,4.01,1.18,5.09h0c.62.39,1.31.56,1.99.55.03,0,.05,0,.08,0h10.21s7.46,0,7.46,0l2.16-3.46,10.83-17.33c1.08-1.73.56-4.01-1.18-5.09Z"/></g></svg>