<?xml version="1.0" encoding="UTF-8"?>
<svg xmlns="http://www.w3.org/2000/svg" viewBox="0 0 107.18 19.69">
  <defs>
    <style>
      .logo-iampam-path {
        fill: #040000;
      }
    </style>
  </defs>
  <g> 
    <path class="logo-iampam-path" d="m4.73,19.69H0V0h4.73v19.69Z" />
    <path class="logo-iampam-path" d="m19.46,16.02h-6.51l-1.14,3.68h-5.07L13.97,0h4.46l7.28,19.69h-5.1l-1.15-3.68Zm-5.37-3.67h4.23l-2.12-6.83-2.11,6.83Z" />
    <path class="logo-iampam-path" d="m33.38,0l4.4,13.7L42.16,0h6.25v19.69h-4.76v-4.6l.46-9.41-4.76,14.01h-3.14l-4.78-14.03.46,9.43v4.6h-4.75V0h6.24Z" />
    <path class="logo-iampam-path" d="m56.17,13.01v6.68h-4.75V0h7.86c1.51,0,2.84.28,4,.83,1.16.55,2.06,1.34,2.69,2.37.64,1.02.95,2.18.95,3.48,0,1.92-.69,3.46-2.06,4.61s-3.26,1.72-5.66,1.72h-3.03Zm0-3.67h3.11c.92,0,1.62-.23,2.1-.69.48-.46.72-1.11.72-1.95,0-.92-.25-1.65-.74-2.2-.5-.55-1.17-.83-2.03-.84h-3.16v5.68Z" />
    <path class="logo-iampam-path" d="m78.23,16.02h-6.51l-1.14,3.68h-5.07L72.74,0h4.46l7.28,19.69h-5.1l-1.15-3.68Zm-5.37-3.67h4.23l-2.12-6.83-2.11,6.83Z" />
    <path class="logo-iampam-path" d="m92.15,0l4.4,13.7,4.38-13.7h6.25v19.69h-4.76v-4.6l.46-9.41-4.76,14.01h-3.14l-4.78-14.03.46,9.43v4.6h-4.75V0h6.24Z" />
  </g>
</svg>
