<svg xmlns="http://www.w3.org/2000/svg" xmlns:xlink="http://www.w3.org/1999/xlink" width="97.748" height="30.147" viewBox="0 0 97.748 30.147">
  <defs>
    <clipPath id="clip-path">
      <rect id="사각형_1822" data-name="사각형 1822" width="97.748" height="30.147" fill="none"/>
    </clipPath>
  </defs>
  <g id="그룹_1780" data-name="그룹 1780" transform="translate(0 0)">
    <path id="패스_1334" data-name="패스 1334" d="M9.43,1.015V7.931H3.2V1.015H0V18.084H3.2V10.768H9.43v7.315h3.2V1.015Z" transform="translate(0 -0.077)" fill="#070203"/>
    <g id="그룹_1779" data-name="그룹 1779" transform="translate(0 0)">
      <g id="그룹_1778" data-name="그룹 1778" clip-path="url(#clip-path)">
        <path id="패스_1335" data-name="패스 1335" d="M20.567,13.651l2.085-7.889h3.233L21.348,20.415l-.25.669a3.457,3.457,0,0,1-3.337,2.485,4.25,4.25,0,0,1-1.334-.223V20.779l.459.012a2.251,2.251,0,0,0,1.277-.294,1.909,1.909,0,0,0,.662-.973l.354-1.043L15.228,5.762h3.243Z" transform="translate(-1.465 -0.439)" fill="#070203"/>
        <path id="패스_1336" data-name="패스 1336" d="M38.5,11.782a8.388,8.388,0,0,1-1.158,4.753,3.691,3.691,0,0,1-3.232,1.706,3.4,3.4,0,0,1-2.93-1.583l-.136,1.349h-2.71V0h3.013V6.459a3.28,3.28,0,0,1,2.742-1.372,3.719,3.719,0,0,1,3.237,1.706,8.4,8.4,0,0,1,1.173,4.8Zm-3.013-.247a5.552,5.552,0,0,0-.543-2.808,1.774,1.774,0,0,0-1.616-.885,1.974,1.974,0,0,0-1.98,1.325v5.006a2,2,0,0,0,2,1.337,1.906,1.906,0,0,0,1.919-1.618,9.367,9.367,0,0,0,.219-2.357" transform="translate(-2.726 0)" fill="#070203"/>
        <path id="패스_1337" data-name="패스 1337" d="M47.974,8.918a7.4,7.4,0,0,0-1.085-.094,2.165,2.165,0,0,0-2.242,1.3v8.3H41.634V5.742h2.847l.084,1.512a2.771,2.771,0,0,1,2.513-1.747,2.834,2.834,0,0,1,.938.152Z" transform="translate(-4.006 -0.42)" fill="#070203"/>
        <path id="패스_1338" data-name="패스 1338" d="M50.23,2.064A1.782,1.782,0,0,1,50.683.809a1.793,1.793,0,0,1,2.466,0,1.766,1.766,0,0,1,.459,1.254,1.77,1.77,0,0,1-.465,1.266,1.77,1.77,0,0,1-2.45,0,1.773,1.773,0,0,1-.464-1.266m3.2,15.966H50.406V5.346H53.43Z" transform="translate(-4.833 -0.024)" fill="#070203"/>
        <path id="패스_1339" data-name="패스 1339" d="M60.713,9.548l1.9-3.787h3.221l-3.211,6.213,3.347,6.471H62.736L60.724,14.46l-2,3.986H55.479l3.347-6.471-3.2-6.213h3.232Z" transform="translate(-5.338 -0.439)" fill="#070203"/>
        <path id="패스_1340" data-name="패스 1340" d="M81.179,9.916a11.422,11.422,0,0,1-.792,4.42,6.543,6.543,0,0,1-2.268,2.931,6.069,6.069,0,0,1-6.751.011,6.587,6.587,0,0,1-2.294-2.914,11.069,11.069,0,0,1-.823-4.355V9.166a11.349,11.349,0,0,1,.808-4.437,6.58,6.58,0,0,1,2.283-2.942,6.057,6.057,0,0,1,6.747,0A6.586,6.586,0,0,1,80.371,4.73a11.314,11.314,0,0,1,.808,4.426Zm-3.17-.773a7.894,7.894,0,0,0-.855-4.079,2.831,2.831,0,0,0-4.869-.018,7.8,7.8,0,0,0-.866,4.039v.831a8,8,0,0,0,.855,4.057,2.707,2.707,0,0,0,2.461,1.441,2.677,2.677,0,0,0,2.419-1.388,7.952,7.952,0,0,0,.855-4.051Z" transform="translate(-6.567 -0.058)" fill="#070203"/>
        <path id="패스_1341" data-name="패스 1341" d="M95.007,12.2A8.3,8.3,0,0,1,93.823,16.9a3.668,3.668,0,0,1-3.2,1.764,3.348,3.348,0,0,1-2.762-1.337V23.3H84.852V5.742h2.794l.1,1.242a3.4,3.4,0,0,1,2.857-1.477A3.685,3.685,0,0,1,93.85,7.242a8.546,8.546,0,0,1,1.157,4.783Zm-3.013-.247a5.5,5.5,0,0,0-.558-2.732,1.775,1.775,0,0,0-1.621-.962,1.944,1.944,0,0,0-1.949,1.219v5.193a1.979,1.979,0,0,0,1.969,1.254q2.16,0,2.159-3.974" transform="translate(-8.165 -0.42)" fill="#070203"/>
        <path id="패스_1342" data-name="패스 1342" d="M104.2,14.921a1.113,1.113,0,0,0-.547-.979A5.784,5.784,0,0,0,101.9,13.3q-4.025-.951-4.025-3.846a3.653,3.653,0,0,1,1.246-2.819,4.662,4.662,0,0,1,3.258-1.131,5,5,0,0,1,3.435,1.136A3.758,3.758,0,0,1,107.1,9.6h-3.013a1.753,1.753,0,0,0-.417-1.2,1.646,1.646,0,0,0-1.3-.475,1.665,1.665,0,0,0-1.179.387,1.282,1.282,0,0,0-.417.985,1.072,1.072,0,0,0,.474.908,4.533,4.533,0,0,0,1.6.6,11.933,11.933,0,0,1,1.9.568,3.463,3.463,0,0,1,2.387,3.411,3.439,3.439,0,0,1-1.324,2.807,5.262,5.262,0,0,1-3.42,1.073,5.41,5.41,0,0,1-2.518-.568,4.366,4.366,0,0,1-1.725-1.559,3.93,3.93,0,0,1-.626-2.139h2.858a1.851,1.851,0,0,0,.594,1.383,2.177,2.177,0,0,0,1.481.481,2,2,0,0,0,1.308-.37,1.2,1.2,0,0,0,.443-.967" transform="translate(-9.383 -0.42)" fill="#070203"/>
        <path id="패스_1343" data-name="패스 1343" d="M2.582,30.193v1.913h-1.1V26.674H3.56a2.349,2.349,0,0,1,1.053.224,1.623,1.623,0,0,1,.7.636,1.8,1.8,0,0,1,.245.939,1.575,1.575,0,0,1-.535,1.259,2.187,2.187,0,0,1-1.479.461Zm0-.907H3.56a.949.949,0,0,0,.662-.209.769.769,0,0,0,.228-.6.911.911,0,0,0-.23-.646.849.849,0,0,0-.635-.253h-1Z" transform="translate(-0.143 -2.033)" fill="#070203"/>
        <path id="패스_1344" data-name="패스 1344" d="M18.006,30.117h-.872v1.989h-1.1V26.674h1.976a2.2,2.2,0,0,1,1.451.429,1.5,1.5,0,0,1,.512,1.213,1.7,1.7,0,0,1-.235.927,1.614,1.614,0,0,1-.714.591l1.15,2.22v.053H19Zm-.872-.906h.884A.891.891,0,0,0,18.655,29a.778.778,0,0,0,.227-.592.831.831,0,0,0-.214-.6.87.87,0,0,0-.654-.221h-.88Z" transform="translate(-1.543 -2.033)" fill="#070203"/>
        <path id="패스_1345" data-name="패스 1345" d="M34.94,29.507a3.35,3.35,0,0,1-.277,1.406,2.126,2.126,0,0,1-.794.933,2.179,2.179,0,0,1-3.166-.924,3.249,3.249,0,0,1-.288-1.386v-.269a3.323,3.323,0,0,1,.283-1.412,2.168,2.168,0,0,1,3.96,0,3.328,3.328,0,0,1,.283,1.409Zm-1.11-.247a2.321,2.321,0,0,0-.3-1.3,1.044,1.044,0,0,0-1.7-.006,2.3,2.3,0,0,0-.3,1.286v.265a2.363,2.363,0,0,0,.3,1.291,1.035,1.035,0,0,0,1.708.017,2.343,2.343,0,0,0,.3-1.289Z" transform="translate(-2.927 -2.027)" fill="#070203"/>
        <path id="패스_1346" data-name="패스 1346" d="M47.245,30.759l1.2-4.085h1.22l-1.851,5.432H46.675l-1.844-5.432h1.216Z" transform="translate(-4.314 -2.033)" fill="#070203"/>
        <rect id="사각형_1821" data-name="사각형 1821" width="1.095" height="5.432" transform="translate(55.574 24.641)" fill="#070203"/>
        <path id="패스_1347" data-name="패스 1347" d="M74.439,32.106V26.675h1.635A2.439,2.439,0,0,1,77.327,27a2.231,2.231,0,0,1,.863.917,2.883,2.883,0,0,1,.31,1.352v.25a2.889,2.889,0,0,1-.3,1.347,2.206,2.206,0,0,1-.859.914,2.455,2.455,0,0,1-1.252.328Zm1.094-4.525v3.626h.53a1.175,1.175,0,0,0,.981-.429,1.963,1.963,0,0,0,.347-1.228v-.287a2.008,2.008,0,0,0-.335-1.255,1.176,1.176,0,0,0-.982-.427Z" transform="translate(-7.163 -2.033)" fill="#070203"/>
        <path id="패스_1348" data-name="패스 1348" d="M92.5,29.752H90.4v1.455h2.467v.9H89.305V26.675H92.86v.906H90.4v1.294h2.1Z" transform="translate(-8.593 -2.033)" fill="#070203"/>
        <path id="패스_1349" data-name="패스 1349" d="M105.544,30.117h-.873v1.989h-1.094V26.674h1.975A2.2,2.2,0,0,1,107,27.1a1.5,1.5,0,0,1,.512,1.213,1.693,1.693,0,0,1-.236.927,1.609,1.609,0,0,1-.714.591l1.15,2.22v.053h-1.176Zm-.873-.906h.884a.894.894,0,0,0,.639-.214.777.777,0,0,0,.226-.592.828.828,0,0,0-.214-.6.87.87,0,0,0-.654-.221h-.88Z" transform="translate(-9.966 -2.033)" fill="#070203"/>
      </g>
    </g>
  </g>
</svg>
