<?xml version="1.0" encoding="UTF-8"?><svg id="uuid-c1a02d3b-566c-4a7d-ac55-d47bcc07d2ce" xmlns="http://www.w3.org/2000/svg" viewBox="0 0 155.35 42.05"><defs><style>.uuid-74cd7f7f-c5b7-44d6-b811-656e0571549d{fill:#040000;}</style></defs><g id="uuid-4d3107a7-2b15-485c-986e-063c002d5b54"><path class="uuid-74cd7f7f-c5b7-44d6-b811-656e0571549d" d="m60.86,24.2h-3.46v-7.92h-6.75v7.92h-3.46V5.72h3.46v7.49h6.75v-7.49h3.46v18.48Z"/><path class="uuid-74cd7f7f-c5b7-44d6-b811-656e0571549d" d="m68.33,19.01l2.31-8.54h3.58l-5.02,15.86-.28.72c-.75,1.79-1.98,2.69-3.69,2.69-.48,0-.98-.08-1.48-.24v-2.78h.51c.63.01,1.1-.09,1.41-.3s.56-.56.73-1.05l.39-1.13-4.37-13.77h3.59l2.32,8.54Z"/><path class="uuid-74cd7f7f-c5b7-44d6-b811-656e0571549d" d="m86.78,17.46c0,2.2-.43,3.91-1.28,5.15-.85,1.23-2.05,1.85-3.58,1.85-1.35,0-2.43-.57-3.24-1.71l-.15,1.46h-3V4.71h3.33v6.99c.77-.99,1.78-1.48,3.03-1.48,1.52,0,2.72.62,3.58,1.85s1.3,2.96,1.3,5.2v.2Zm-3.33-.27c0-1.39-.2-2.4-.6-3.04-.4-.64-1-.96-1.79-.96-1.06,0-1.79.48-2.19,1.43v5.42c.41.96,1.15,1.45,2.21,1.45s1.78-.58,2.12-1.75c.16-.56.24-1.41.24-2.55Z"/><path class="uuid-74cd7f7f-c5b7-44d6-b811-656e0571549d" d="m95.84,13.91c-.45-.07-.85-.1-1.2-.1-1.26,0-2.09.47-2.48,1.41v8.98h-3.33v-13.73h3.15l.09,1.64c.67-1.26,1.6-1.89,2.78-1.89.37,0,.71.06,1.04.17l-.05,3.53Z"/><path class="uuid-74cd7f7f-c5b7-44d6-b811-656e0571549d" d="m97.42,6.91c0-.55.17-1,.5-1.36.33-.35.79-.53,1.37-.53s1.02.18,1.36.53c.34.36.51.81.51,1.36s-.17,1.02-.51,1.37c-.34.36-.79.53-1.36.53s-1.01-.18-1.36-.53-.51-.81-.51-1.37Zm3.54,17.28h-3.35v-13.73h3.35v13.73Z"/><path class="uuid-74cd7f7f-c5b7-44d6-b811-656e0571549d" d="m108.47,14.57l2.1-4.1h3.56l-3.55,6.73,3.7,7h-3.58l-2.23-4.31-2.22,4.31h-3.59l3.7-7-3.54-6.73h3.58l2.05,4.1Z"/><path class="uuid-74cd7f7f-c5b7-44d6-b811-656e0571549d" d="m129.75,15.38c0,1.82-.29,3.41-.88,4.78-.58,1.37-1.42,2.43-2.51,3.17-1.09.74-2.34,1.12-3.74,1.12s-2.63-.37-3.73-1.1c-1.09-.74-1.94-1.79-2.54-3.15-.6-1.37-.9-2.94-.91-4.71v-.91c0-1.82.3-3.42.89-4.8s1.44-2.44,2.53-3.19c1.09-.74,2.33-1.11,3.73-1.11s2.64.37,3.73,1.11c1.09.74,1.93,1.8,2.53,3.19.6,1.38.89,2.98.89,4.79v.82Zm-3.51-.84c0-1.94-.32-3.41-.95-4.42-.63-1.01-1.53-1.51-2.7-1.51s-2.06.5-2.69,1.49c-.63.99-.95,2.45-.96,4.37v.9c0,1.89.32,3.35.95,4.39.63,1.04,1.54,1.56,2.72,1.56s2.05-.5,2.68-1.5c.62-1,.94-2.46.95-4.38v-.9Z"/><path class="uuid-74cd7f7f-c5b7-44d6-b811-656e0571549d" d="m143.28,17.46c0,2.11-.44,3.81-1.31,5.08-.87,1.27-2.05,1.91-3.54,1.91-1.26,0-2.28-.48-3.06-1.45v6.47h-3.33V10.47h3.09l.12,1.35c.81-1.07,1.86-1.6,3.16-1.6,1.54,0,2.73.63,3.59,1.88.85,1.25,1.28,2.98,1.28,5.18v.19Zm-3.33-.27c0-1.28-.21-2.26-.62-2.96-.41-.69-1.01-1.04-1.79-1.04-1.05,0-1.77.44-2.16,1.32v5.62c.41.91,1.13,1.36,2.18,1.36,1.59,0,2.39-1.43,2.39-4.3Z"/><path class="uuid-74cd7f7f-c5b7-44d6-b811-656e0571549d" d="m152.11,20.4c0-.45-.2-.8-.61-1.06-.4-.26-1.05-.49-1.94-.69-2.97-.69-4.45-2.07-4.45-4.16,0-1.22.46-2.24,1.38-3.05.92-.82,2.12-1.22,3.61-1.22,1.58,0,2.85.41,3.8,1.23.95.82,1.42,1.89,1.42,3.2h-3.33c0-.52-.15-.96-.46-1.3s-.79-.51-1.44-.51c-.56,0-1,.14-1.3.42s-.46.63-.46,1.07c0,.41.17.73.52.98.35.25.94.47,1.77.65.83.18,1.53.39,2.1.62,1.76.71,2.64,1.94,2.64,3.69,0,1.25-.49,2.27-1.46,3.04-.98.77-2.24,1.16-3.78,1.16-1.05,0-1.97-.21-2.79-.62s-1.45-.97-1.91-1.69c-.46-.71-.69-1.49-.69-2.32h3.16c.03.65.25,1.15.66,1.5.41.35.95.52,1.64.52.64,0,1.12-.13,1.45-.4s.49-.62.49-1.05Z"/><path class="uuid-74cd7f7f-c5b7-44d6-b811-656e0571549d" d="m49.89,35.19v2.07h-1.21v-5.88h2.29c.44,0,.83.08,1.17.24s.59.39.77.69c.18.3.27.64.27,1.02,0,.58-.2,1.03-.59,1.36-.39.33-.94.5-1.64.5h-1.06Zm0-.98h1.08c.32,0,.56-.08.73-.23.17-.15.25-.37.25-.65s-.08-.52-.25-.7c-.17-.18-.4-.27-.7-.27h-1.11v1.85Z"/><path class="uuid-74cd7f7f-c5b7-44d6-b811-656e0571549d" d="m65.41,35.11h-.96v2.15h-1.21v-5.88h2.19c.69,0,1.23.15,1.61.46s.57.75.57,1.31c0,.4-.09.74-.26,1-.17.27-.44.48-.79.64l1.27,2.4v.06h-1.3l-1.1-2.15Zm-.96-.98h.98c.3,0,.54-.08.71-.23.17-.15.25-.37.25-.64s-.08-.5-.24-.65c-.16-.16-.4-.24-.72-.24h-.97v1.76Z"/><path class="uuid-74cd7f7f-c5b7-44d6-b811-656e0571549d" d="m82.62,34.45c0,.58-.1,1.09-.31,1.52-.21.44-.5.77-.88,1.01-.38.24-.82.35-1.31.35s-.92-.12-1.3-.35c-.38-.23-.68-.57-.89-1-.21-.44-.32-.94-.32-1.5v-.29c0-.58.1-1.09.31-1.53.21-.44.5-.78.88-1.01.38-.24.82-.35,1.31-.35s.93.12,1.31.35c.38.24.68.57.88,1.01.21.44.31.95.31,1.52v.26Zm-1.23-.27c0-.62-.11-1.08-.33-1.41s-.54-.48-.95-.48-.72.16-.94.47c-.22.32-.33.78-.33,1.39v.29c0,.6.11,1.07.33,1.4.22.33.54.5.95.5s.72-.16.94-.48c.22-.32.33-.78.33-1.4v-.29Z"/><path class="uuid-74cd7f7f-c5b7-44d6-b811-656e0571549d" d="m94.7,35.8l1.33-4.42h1.35l-2.05,5.88h-1.26l-2.04-5.88h1.34l1.33,4.42Z"/><path class="uuid-74cd7f7f-c5b7-44d6-b811-656e0571549d" d="m109.9,37.26h-1.21v-5.88h1.21v5.88Z"/><path class="uuid-74cd7f7f-c5b7-44d6-b811-656e0571549d" d="m121.63,37.26v-5.88h1.81c.52,0,.98.12,1.39.35.41.23.73.56.96.99.23.43.34.92.34,1.46v.27c0,.55-.11,1.03-.34,1.46s-.54.75-.95.99-.87.35-1.38.36h-1.82Zm1.21-4.9v3.93h.59c.47,0,.84-.15,1.09-.46.25-.31.38-.75.38-1.33v-.31c0-.6-.12-1.05-.37-1.36-.25-.31-.61-.46-1.09-.46h-.6Z"/><path class="uuid-74cd7f7f-c5b7-44d6-b811-656e0571549d" d="m140.04,34.71h-2.33v1.58h2.73v.97h-3.94v-5.88h3.93v.98h-2.72v1.4h2.33v.95Z"/><path class="uuid-74cd7f7f-c5b7-44d6-b811-656e0571549d" d="m152.95,35.11h-.97v2.15h-1.21v-5.88h2.18c.69,0,1.23.15,1.61.46s.57.75.57,1.31c0,.4-.09.74-.26,1-.17.27-.44.48-.79.64l1.27,2.4v.06h-1.3l-1.1-2.15Zm-.97-.98h.98c.3,0,.54-.08.71-.23.17-.15.25-.37.25-.64s-.08-.5-.24-.65c-.16-.16-.4-.24-.72-.24h-.97v1.76Z"/><path d="m34.63,5.65c1.08-1.73.56-4.01-1.18-5.09-.6-.37-1.26-.54-1.91-.55-.04,0-.09-.01-.13-.01h-9.74s-8.54,0-8.54,0l-1.55,2.48L.56,20.11c-1.08,1.73-.56,4.01,1.18,5.09h0c1.73,1.08,4.01.56,5.09-1.18L17.23,7.39h7.61s-6.59,10.55-6.59,10.55h8.71l7.68-12.29Z"/><path d="m39.45,16.17h0c-1.73-1.08-4.01-.56-5.09,1.18l-10.82,17.32h-7.03s6.78-10.85,6.78-10.85h-8.71l-7.87,12.59c-1.08,1.73-.56,4.01,1.18,5.09h0c.62.39,1.31.56,1.99.55.03,0,.05,0,.08,0h10.21s7.46,0,7.46,0l2.16-3.46,10.83-17.33c1.08-1.73.56-4.01-1.18-5.09Z"/></g></svg>