<?xml version="1.0" encoding="UTF-8"?><svg id="uuid-0e4140f9-b15b-465a-8f2c-662db193e38d" xmlns="http://www.w3.org/2000/svg" xmlns:xlink="http://www.w3.org/1999/xlink" viewBox="0 0 107.18 24.51"><defs><style>.uuid-4ed142be-fd20-411c-924f-b121469e2544{fill:url(#uuid-5942a4f4-ce29-4b63-9727-2b63d145c5e3);}.uuid-246a33ab-d329-4d99-ac79-7f9d80b7a9ef{fill:url(#uuid-0cfd7b09-ba20-4000-bdf3-e7b124c38cb5);}.uuid-b370fd7d-be36-478e-816d-8996b50bf8cf{fill:url(#uuid-11436b8e-19bf-4f20-9761-98f19c9dc19f);}.uuid-bc37379a-09a5-4dbb-8989-8680a042a596{fill:url(#uuid-9e597442-82fa-4e44-9ed6-604a4afe0505);}.uuid-2a243f02-4f7b-4817-9574-22458669e3b2{fill:url(#uuid-646aada4-c992-4d37-a7fd-2a9c5b981243);}.uuid-8c0dbadb-9296-4589-a881-a9ad909a203c{fill:url(#uuid-8ef2b1fc-d3ab-4698-829a-70bb606f2128);}.uuid-d2ae4cda-a283-4578-a900-e78096d17fa6{filter:url(#uuid-6d44922e-bdf3-4d54-a0fc-092591e3947b);}.uuid-e5322133-2ce8-4f9d-a49a-ba5bc28b0606{fill:url(#uuid-0c2f2d32-6c4f-4af6-beac-984d82cd24df);}.uuid-6dd793e2-9b3e-4feb-8756-5eb49c75d886{fill:url(#uuid-ef1274d5-e0bf-4b92-b2cd-64cb281dd331);}.uuid-8d333847-9c8a-4cb9-8aae-fcef78742f05{fill:url(#uuid-72922a8a-edab-41fa-a29f-7ba721db4fd1);}</style><filter id="uuid-6d44922e-bdf3-4d54-a0fc-092591e3947b" filterUnits="userSpaceOnUse"><feOffset dx="1.13" dy="1.13"/><feGaussianBlur result="uuid-4d3b50bd-4da9-43ea-9323-ca708d993891" stdDeviation=".57"/><feFlood flood-color="#231815" flood-opacity=".4"/><feComposite in2="uuid-4d3b50bd-4da9-43ea-9323-ca708d993891" operator="in"/><feComposite in="SourceGraphic"/></filter><linearGradient id="uuid-0cfd7b09-ba20-4000-bdf3-e7b124c38cb5" x1="-1.01" y1="10.04" x2="106.91" y2="10.04" gradientUnits="userSpaceOnUse"><stop offset="0" stop-color="#e38812"/><stop offset="1" stop-color="#6162a2"/></linearGradient><linearGradient id="uuid-5942a4f4-ce29-4b63-9727-2b63d145c5e3" x1="-1.01" y1="15.07" x2="106.91" y2="15.07" gradientUnits="userSpaceOnUse"><stop offset="0" stop-color="#e38812"/><stop offset="1" stop-color="#6162a2"/></linearGradient><linearGradient id="uuid-646aada4-c992-4d37-a7fd-2a9c5b981243" y1="9.66" y2="9.66" xlink:href="#uuid-5942a4f4-ce29-4b63-9727-2b63d145c5e3"/><linearGradient id="uuid-11436b8e-19bf-4f20-9761-98f19c9dc19f" y1="12.24" y2="12.24" xlink:href="#uuid-5942a4f4-ce29-4b63-9727-2b63d145c5e3"/><linearGradient id="uuid-9e597442-82fa-4e44-9ed6-604a4afe0505" y1="9.61" y2="9.61" xlink:href="#uuid-5942a4f4-ce29-4b63-9727-2b63d145c5e3"/><linearGradient id="uuid-8ef2b1fc-d3ab-4698-829a-70bb606f2128" y1="12.36" x2="106.91" y2="12.36" xlink:href="#uuid-5942a4f4-ce29-4b63-9727-2b63d145c5e3"/><linearGradient id="uuid-0c2f2d32-6c4f-4af6-beac-984d82cd24df" y1="10.04" y2="10.04" xlink:href="#uuid-5942a4f4-ce29-4b63-9727-2b63d145c5e3"/><linearGradient id="uuid-ef1274d5-e0bf-4b92-b2cd-64cb281dd331" y1="14.82" y2="14.82" xlink:href="#uuid-5942a4f4-ce29-4b63-9727-2b63d145c5e3"/><linearGradient id="uuid-72922a8a-edab-41fa-a29f-7ba721db4fd1" y1="12.36" y2="12.36" xlink:href="#uuid-5942a4f4-ce29-4b63-9727-2b63d145c5e3"/></defs><g id="uuid-98101edb-d586-476e-8dcb-b38807e8272a"><g class="uuid-d2ae4cda-a283-4578-a900-e78096d17fa6"><path class="uuid-246a33ab-d329-4d99-ac79-7f9d80b7a9ef" d="m13.74,19.08h-3.94v-7.55H3.96v7.55H0V.99h3.96v7.18h5.84V.99h3.94v18.09Z"/><path class="uuid-4ed142be-fd20-411c-924f-b121469e2544" d="m20.96,13.22l2.03-7.58h4.08l-4.98,15.69-.21.57c-.71,1.74-1.96,2.61-3.75,2.61-.5,0-1.02-.08-1.57-.25v-2.98h.5c.54,0,.94-.08,1.23-.25.28-.17.49-.47.63-.91l.31-.89-4.25-13.58h4.07l1.93,7.58Z"/><path class="uuid-2a243f02-4f7b-4817-9574-22458669e3b2" d="m39.4,12.47c0,2.2-.41,3.9-1.24,5.08-.83,1.18-2,1.78-3.5,1.78-1.24,0-2.24-.54-3-1.63l-.16,1.38h-3.41V0h3.81v6.72c.71-.89,1.62-1.33,2.74-1.33,1.52,0,2.69.6,3.52,1.8.83,1.2,1.24,2.89,1.24,5.07v.21Zm-3.82-.27c0-1.29-.16-2.21-.47-2.76s-.79-.82-1.44-.82c-.86,0-1.45.36-1.78,1.08v5.33c.32.71.93,1.07,1.81,1.07s1.46-.48,1.71-1.44c.12-.47.18-1.29.18-2.45Z"/><path class="uuid-b370fd7d-be36-478e-816d-8996b50bf8cf" d="m48.47,9.43l-1.25-.1c-1.2,0-1.96.41-2.3,1.24v8.51h-3.81V5.64h3.57l.12,1.73c.64-1.32,1.53-1.98,2.68-1.98.41,0,.76.05,1.06.15l-.07,3.89Z"/><path class="uuid-bc37379a-09a5-4dbb-8989-8680a042a596" d="m49.81,2.17c0-.6.2-1.09.59-1.47s.9-.57,1.52-.57,1.13.19,1.52.57.59.87.59,1.47-.2,1.08-.59,1.47c-.39.38-.9.57-1.52.57s-1.13-.19-1.52-.57c-.39-.38-.59-.87-.59-1.47Zm4.04,16.91h-3.82V5.64h3.82v13.44Z"/><path class="uuid-8c0dbadb-9296-4589-a881-a9ad909a203c" d="m61.15,9.34l1.77-3.7h3.95l-3.22,6.55,3.38,6.89h-3.97l-1.92-3.98-1.89,3.98h-4l3.39-6.89-3.21-6.55h4l1.72,3.7Z"/><path class="uuid-e5322133-2ce8-4f9d-a49a-ba5bc28b0606" d="m82.2,10.41c0,1.76-.3,3.32-.89,4.68-.59,1.36-1.44,2.4-2.54,3.14-1.1.73-2.34,1.1-3.74,1.1s-2.64-.35-3.73-1.06-1.93-1.72-2.54-3.04c-.61-1.32-.92-2.83-.95-4.53v-1.02c0-1.77.3-3.34.89-4.69.59-1.35,1.44-2.4,2.54-3.14s2.36-1.11,3.77-1.11,2.64.36,3.73,1.09c1.09.73,1.94,1.77,2.55,3.11.61,1.35.91,2.89.92,4.63v.83Zm-4.03-.76c0-1.8-.27-3.16-.82-4.09-.55-.93-1.33-1.4-2.34-1.4-1.99,0-3.04,1.64-3.15,4.92v1.33c-.01,1.77.26,3.13.79,4.09.53.95,1.33,1.43,2.38,1.43s1.77-.47,2.32-1.4.82-2.28.82-4.04v-.83Z"/><path class="uuid-6dd793e2-9b3e-4feb-8756-5eb49c75d886" d="m95.41,12.46c0,2.09-.43,3.75-1.28,5-.85,1.25-2.01,1.87-3.46,1.87-1.12,0-2.04-.45-2.77-1.35v6.27h-3.81V5.64h3.56l.11,1.24c.73-.99,1.69-1.49,2.88-1.49,1.51,0,2.68.61,3.51,1.83.84,1.22,1.25,2.9,1.25,5.04v.2Zm-3.81-.26c0-2.38-.63-3.58-1.9-3.58-.9,0-1.51.36-1.81,1.07v5.29c.33.75.94,1.12,1.83,1.12,1.21,0,1.84-1.15,1.87-3.45v-.45Z"/><path class="uuid-8d333847-9c8a-4cb9-8aae-fcef78742f05" d="m103.49,15.3c0-.36-.17-.64-.51-.86s-.98-.44-1.93-.67c-.95-.23-1.73-.54-2.35-.91s-1.09-.83-1.41-1.37-.49-1.16-.49-1.85c0-1.23.46-2.25,1.39-3.05.93-.8,2.14-1.2,3.64-1.2,1.61,0,2.91.4,3.88,1.21.98.8,1.47,1.86,1.47,3.17h-3.82c0-1.08-.52-1.62-1.55-1.62-.4,0-.73.12-1,.37-.27.24-.41.55-.41.91s.17.68.5.91c.33.23.86.42,1.59.57.73.15,1.36.33,1.91.53,1.84.7,2.76,1.94,2.76,3.74,0,1.23-.5,2.22-1.49,2.99s-2.27,1.16-3.84,1.16c-1.05,0-1.98-.21-2.8-.62s-1.46-.98-1.92-1.69c-.46-.71-.69-1.46-.69-2.25h3.56c.01.62.2,1.07.56,1.36.36.29.82.43,1.39.43.52,0,.91-.12,1.17-.35.26-.23.39-.53.39-.91Z"/></g></g></svg>