<?xml version="1.0" encoding="UTF-8"?>
<svg xmlns="http://www.w3.org/2000/svg" viewBox="0 0 16 16">
  <g>
    <rect fill="#fff" width="16" height="16" />
    <g>
      <path d="m4.18,6.94h-1.02V2.7h1.02v4.24Z" />
      <path d="m7.84,6.15h-1.4l-.24.79h-1.09l1.56-4.24h.96l1.57,4.24h-1.1l-.25-.79Zm-1.16-.79h.91l-.46-1.47-.45,1.47Z" />
      <path d="m10.77,2.7l.95,2.95.94-2.95h1.34v4.24h-1.02v-.99l.1-2.03-1.03,3.02h-.68l-1.03-3.02.1,2.03v.99h-1.02V2.7h1.34Z" />
      <path d="m3.02,11.35v1.44h-1.02v-4.24h1.69c.32,0,.61.06.86.18s.44.29.58.51c.14.22.21.47.21.75,0,.41-.15.74-.44.99-.3.25-.7.37-1.22.37h-.65Zm0-.79h.67c.2,0,.35-.05.45-.15s.16-.24.16-.42c0-.2-.05-.36-.16-.47-.11-.12-.25-.18-.44-.18h-.68v1.22Z" />
      <path d="m7.77,12h-1.4l-.24.79h-1.09l1.56-4.24h.96l1.57,4.24h-1.1l-.25-.79Zm-1.16-.79h.91l-.46-1.47-.45,1.47Z" />
      <path d="m10.77,8.55l.95,2.95.94-2.95h1.34v4.24h-1.02v-.99l.1-2.03-1.03,3.02h-.68l-1.03-3.02.1,2.03v.99h-1.02v-4.24h1.34Z" />
    </g>
    <path d="m15,1v14H1V1h14m1-1H0v16h16V0h0Z" />
  </g>
</svg>