<?xml version="1.0" encoding="UTF-8"?><svg id="uuid-3f86db6b-6ef0-45a8-8886-a2bec058f05c" xmlns="http://www.w3.org/2000/svg" xmlns:xlink="http://www.w3.org/1999/xlink" viewBox="0 0 107.18 19.69"><defs><style>.uuid-c462ff55-60c1-4e02-aced-afe18e825968{fill:url(#uuid-0c6a06c2-0daa-402d-9b32-6dbb103bd50d);}.uuid-c70e6500-768f-4ef3-b489-797ecda95f89{fill:url(#uuid-db4a7293-6621-4e66-870b-1c6d8696e2af);}.uuid-2df891d1-9aa6-4258-9ab1-27f16c335ad2{fill:url(#uuid-0fe1cc6b-e761-4add-bbca-f18bc7e3219a);}.uuid-7b8c5f29-d458-44f8-b63f-7c389ee67c30{fill:url(#uuid-c5fae642-62ba-4c74-8bdb-5c9c210fa190);}.uuid-affd367c-69b3-4005-aa2f-2c1b9ffe6cdf{fill:url(#uuid-08560bf8-ad19-4237-9234-6ac0cc1f46e5);}.uuid-c742e750-d8ea-4884-9e75-6d279ed2408a{fill:url(#uuid-d52559e9-c399-4d49-af0e-26dbf4a9c795);}</style><linearGradient id="uuid-0c6a06c2-0daa-402d-9b32-6dbb103bd50d" x1="-5.39" y1="9.85" x2="108.74" y2="9.85" gradientUnits="userSpaceOnUse"><stop offset="0" stop-color="#036eb8"/><stop offset="1" stop-color="#8fc31f"/></linearGradient><linearGradient id="uuid-0fe1cc6b-e761-4add-bbca-f18bc7e3219a" x1="-5.39" x2="108.73" xlink:href="#uuid-0c6a06c2-0daa-402d-9b32-6dbb103bd50d"/><linearGradient id="uuid-d52559e9-c399-4d49-af0e-26dbf4a9c795" x1="-5.39" x2="108.74" xlink:href="#uuid-0c6a06c2-0daa-402d-9b32-6dbb103bd50d"/><linearGradient id="uuid-db4a7293-6621-4e66-870b-1c6d8696e2af" x1="-5.39" x2="108.74" xlink:href="#uuid-0c6a06c2-0daa-402d-9b32-6dbb103bd50d"/><linearGradient id="uuid-08560bf8-ad19-4237-9234-6ac0cc1f46e5" x1="-5.39" x2="108.74" xlink:href="#uuid-0c6a06c2-0daa-402d-9b32-6dbb103bd50d"/><linearGradient id="uuid-c5fae642-62ba-4c74-8bdb-5c9c210fa190" x1="-5.39" x2="108.74" xlink:href="#uuid-0c6a06c2-0daa-402d-9b32-6dbb103bd50d"/></defs><g id="uuid-84727582-c18c-48b8-bcf8-f9340ac3ab1a"><g><path class="uuid-c462ff55-60c1-4e02-aced-afe18e825968" d="m4.73,19.69H0V0h4.73v19.69Z"/><path class="uuid-2df891d1-9aa6-4258-9ab1-27f16c335ad2" d="m19.46,16.02h-6.51l-1.14,3.68h-5.07L13.97,0h4.46l7.28,19.69h-5.1l-1.15-3.68Zm-5.37-3.67h4.23l-2.12-6.83-2.11,6.83Z"/><path class="uuid-c742e750-d8ea-4884-9e75-6d279ed2408a" d="m33.38,0l4.4,13.7L42.16,0h6.25v19.69h-4.76v-4.6l.46-9.41-4.76,14.01h-3.14l-4.78-14.03.46,9.43v4.6h-4.75V0h6.24Z"/><path class="uuid-c70e6500-768f-4ef3-b489-797ecda95f89" d="m56.17,13.01v6.68h-4.75V0h7.86c1.51,0,2.84.28,4,.83,1.16.55,2.06,1.34,2.69,2.37.64,1.02.95,2.18.95,3.48,0,1.92-.69,3.46-2.06,4.61s-3.26,1.72-5.66,1.72h-3.03Zm0-3.67h3.11c.92,0,1.62-.23,2.1-.69.48-.46.72-1.11.72-1.95,0-.92-.25-1.65-.74-2.2s-1.17-.83-2.03-.84h-3.16v5.68Z"/><path class="uuid-affd367c-69b3-4005-aa2f-2c1b9ffe6cdf" d="m78.23,16.02h-6.51l-1.14,3.68h-5.07L72.74,0h4.46l7.28,19.69h-5.1l-1.15-3.68Zm-5.37-3.67h4.23l-2.12-6.83-2.11,6.83Z"/><path class="uuid-7b8c5f29-d458-44f8-b63f-7c389ee67c30" d="m92.15,0l4.4,13.7,4.38-13.7h6.25v19.69h-4.76v-4.6l.46-9.41-4.76,14.01h-3.14l-4.78-14.03.46,9.43v4.6h-4.75V0h6.24Z"/></g></g></svg>