<svg xmlns="http://www.w3.org/2000/svg" width="99.882" height="27.434" viewBox="0 0 99.882 27.434">
  <g id="Logo" transform="translate(-49.209 -5.295)">
    <path id="패스_1172" data-name="패스 1172" d="M58.71,6.074l3,9.358,2.994-9.358h4.267v13.45H65.722V16.383l.314-6.429-3.253,9.57H60.641l-3.262-9.58.314,6.439v3.141H54.451V6.074Z" transform="translate(-5.242 -0.585)" fill="#1a1311"/>
    <path id="패스_1173" data-name="패스 1173" d="M81.142,13.815h-5.1V17.03h6.022v2.493H72.8V6.073h9.284v2.5H76.043v2.836h5.1Z" transform="translate(-7.008 -0.585)" fill="#1a1311"/>
    <path id="패스_1174" data-name="패스 1174" d="M95.5,17.841a5.211,5.211,0,0,1-2.19,1.339,9.437,9.437,0,0,1-3.159.508,5.633,5.633,0,0,1-4.221-1.616,6.547,6.547,0,0,1-1.691-4.5l-.009-1.165a8.023,8.023,0,0,1,.7-3.469,5.211,5.211,0,0,1,2.009-2.282,5.678,5.678,0,0,1,3.026-.8,5.956,5.956,0,0,1,3.9,1.15,4.876,4.876,0,0,1,1.621,3.431H92.367a2.557,2.557,0,0,0-.72-1.608,2.329,2.329,0,0,0-1.572-.481,2.117,2.117,0,0,0-1.884,1.035,5.535,5.535,0,0,0-.674,2.957v.813a5.4,5.4,0,0,0,.689,3.025,2.43,2.43,0,0,0,2.165,1.011,2.73,2.73,0,0,0,1.885-.563V14.542H90V12.316h5.5Z" transform="translate(-8.109 -0.564)" fill="#1a1311"/>
    <path id="패스_1175" data-name="패스 1175" d="M106.313,17.012H101.87l-.776,2.512H97.629l4.933-13.45h3.049l4.97,13.45H107.1Zm-3.667-2.5h2.892l-1.45-4.666Z" transform="translate(-9.398 -0.585)" fill="#1a1311"/>
    <path id="패스_1176" data-name="패스 1176" d="M116.637,17.03h6.429v2.494H112.59v-1.71L119,8.576h-6.447v-2.5H123V7.737Z" transform="translate(-10.836 -0.585)" fill="#1a1311"/>
    <path id="패스_1177" data-name="패스 1177" d="M136.9,13.056a7.93,7.93,0,0,1-.73,3.483,5.4,5.4,0,0,1-2.072,2.333,5.792,5.792,0,0,1-3.064.817,5.87,5.87,0,0,1-3.048-.789,5.376,5.376,0,0,1-2.073-2.259,7.684,7.684,0,0,1-.781-3.373v-.756a7.98,7.98,0,0,1,.725-3.487,5.375,5.375,0,0,1,2.079-2.333,6.15,6.15,0,0,1,6.129-.009A5.472,5.472,0,0,1,136.143,9a7.723,7.723,0,0,1,.753,3.441Zm-3.3-.564a5.656,5.656,0,0,0-.671-3.044,2.147,2.147,0,0,0-1.917-1.039q-2.439,0-2.577,3.658l-.01.989a5.826,5.826,0,0,0,.656,3.039,2.147,2.147,0,0,0,1.949,1.063,2.124,2.124,0,0,0,1.9-1.045,5.682,5.682,0,0,0,.674-3Z" transform="translate(-12.047 -0.565)" fill="#1a1311"/>
    <path id="패스_1178" data-name="패스 1178" d="M151.233,19.524h-3.225l-4.766-8.369v8.369H140V6.074h3.243L148,14.443V6.074h3.234Z" transform="translate(-13.479 -0.585)" fill="#1a1311"/>
    <path id="패스_1179" data-name="패스 1179" d="M163.041,13.815h-5.1V17.03h6.022v2.493H154.7V6.073h9.284v2.5h-6.041v2.836h5.1Z" transform="translate(-14.893 -0.585)" fill="#1a1311"/>
    <path id="패스_1180" data-name="패스 1180" d="M62.736,35.231H60.36V31.853H56.841v3.377H54.451V27.141h2.389v3.211H60.36V27.141h2.376Z" transform="translate(-5.242 -2.613)" fill="#1a1311"/>
    <path id="패스_1181" data-name="패스 1181" d="M72.265,30.653l1.825-3.511h2.58l-3.193,5.183V35.23H71.053V32.325l-3.186-5.183h2.567Z" transform="translate(-6.533 -2.613)" fill="#1a1311"/>
    <path id="패스_1182" data-name="패스 1182" d="M82.19,35.23V27.142h3.561a5.962,5.962,0,0,1,2.91.571,1.815,1.815,0,0,1,1,1.662,1.665,1.665,0,0,1-.353,1.072,2.055,2.055,0,0,1-1.042.656,2.175,2.175,0,0,1,1.191.622,1.588,1.588,0,0,1,.416,1.112,1.987,1.987,0,0,1-.923,1.786,5.134,5.134,0,0,1-2.733.608Zm2.389-4.717h1.246a2.07,2.07,0,0,0,1.116-.234.765.765,0,0,0,.333-.674.8.8,0,0,0-.361-.738,2.283,2.283,0,0,0-1.164-.225H84.579Zm0,1.278V33.73h1.566a1.721,1.721,0,0,0,.993-.241.782.782,0,0,0,.348-.681q0-1.011-1.233-1.017Z" transform="translate(-7.912 -2.613)" fill="#1a1311"/>
    <path id="패스_1183" data-name="패스 1183" d="M99.4,32.369H98.107V35.23H95.718V27.142h3.9a5.078,5.078,0,0,1,2.757.638,2.026,2.026,0,0,1,.994,1.8,2.255,2.255,0,0,1-.419,1.4,2.887,2.887,0,0,1-1.31.9l2.07,3.266v.083h-2.56Zm-1.294-1.5h1.511a1.546,1.546,0,0,0,1.025-.293,1.012,1.012,0,0,0,.343-.816,1.026,1.026,0,0,0-.347-.821,1.533,1.533,0,0,0-1.021-.3H98.107Z" transform="translate(-9.215 -2.613)" fill="#1a1311"/>
    <rect id="사각형_1607" data-name="사각형 1607" width="2.382" height="8.089" transform="translate(98.076 24.529)" fill="#1a1311"/>
    <path id="패스_1184" data-name="패스 1184" d="M121.069,29.83l1.62-2.689h2.729l-2.771,4.011,2.846,4.079h-2.756l-1.668-2.739L119.4,35.231h-2.749l2.839-4.079-2.765-4.011h2.723Z" transform="translate(-11.23 -2.613)" fill="#1a1311"/>
    <path id="패스_1185" data-name="패스 1185" d="M138.119,31.341a4.041,4.041,0,0,1-.538,2.095,3.581,3.581,0,0,1-1.528,1.4,5.006,5.006,0,0,1-2.257.492,5.083,5.083,0,0,1-2.247-.475,3.6,3.6,0,0,1-1.528-1.358,3.941,3.941,0,0,1-.575-2.028v-.455a4.06,4.06,0,0,1,.534-2.1,3.566,3.566,0,0,1,1.532-1.4,5.039,5.039,0,0,1,2.27-.5,4.988,4.988,0,0,1,2.246.489,3.651,3.651,0,0,1,1.535,1.392,3.959,3.959,0,0,1,.555,2.07ZM135.689,31a2.906,2.906,0,0,0-.493-1.83,1.693,1.693,0,0,0-1.413-.625q-1.8,0-1.9,2.2l-.006.595a2.983,2.983,0,0,0,.483,1.827,1.688,1.688,0,0,0,1.437.64,1.667,1.667,0,0,0,1.4-.628,2.914,2.914,0,0,0,.5-1.806Z" transform="translate(-12.463 -2.601)" fill="#1a1311"/>
    <path id="패스_1186" data-name="패스 1186" d="M146.02,32.487v2.745h-2.39V27.142h3.956a5.5,5.5,0,0,1,2.011.342,3.033,3.033,0,0,1,1.355.972,2.3,2.3,0,0,1,.482,1.431,2.19,2.19,0,0,1-1.038,1.892,5,5,0,0,1-2.849.709Zm0-1.506h1.565a1.694,1.694,0,0,0,1.058-.284.954.954,0,0,0,.364-.8,1.162,1.162,0,0,0-.374-.906,1.485,1.485,0,0,0-1.021-.344H146.02Z" transform="translate(-13.828 -2.613)" fill="#1a1311"/>
    <path id="패스_1187" data-name="패스 1187" d="M161.75,33.069a.752.752,0,0,0-.371-.667,5.1,5.1,0,0,0-1.3-.494,14.424,14.424,0,0,1-1.525-.494q-1.926-.773-1.927-2.122a1.687,1.687,0,0,1,.48-1.187,3.152,3.152,0,0,1,1.358-.8,6.357,6.357,0,0,1,1.974-.286,5.545,5.545,0,0,1,1.917.311,2.98,2.98,0,0,1,1.317.887,2.022,2.022,0,0,1,.47,1.314h-2.383a.9.9,0,0,0-.371-.767,1.668,1.668,0,0,0-1-.272,1.9,1.9,0,0,0-1.01.231.676.676,0,0,0-.371.586.7.7,0,0,0,.408.564,5.785,5.785,0,0,0,1.436.522,9.945,9.945,0,0,1,1.688.58,2.32,2.32,0,0,1,1.607,2.083,1.872,1.872,0,0,1-.981,1.667,5.105,5.105,0,0,1-2.689.605,6.39,6.39,0,0,1-2.182-.352,3.254,3.254,0,0,1-1.47-.967,2.194,2.194,0,0,1-.493-1.414h2.4a1.121,1.121,0,0,0,.412.959,2.265,2.265,0,0,0,1.338.308,1.8,1.8,0,0,0,.936-.209.651.651,0,0,0,.343-.586" transform="translate(-15.049 -2.601)" fill="#1a1311"/>
  </g>
</svg>
