<svg xmlns="http://www.w3.org/2000/svg" xmlns:xlink="http://www.w3.org/1999/xlink" width="100%" height="100%" viewBox="0 0 1920 1080">
  <defs>
    <filter id="사각형_2" x="91" y="556" width="338" height="138" filterUnits="userSpaceOnUse">
      <feOffset dy="3" input="SourceAlpha"/>
      <feGaussianBlur stdDeviation="3" result="blur"/>
      <feFlood flood-opacity="0.161"/>
      <feComposite operator="in" in2="blur"/>
      <feComposite in="SourceGraphic"/>
    </filter>
    <filter id="사각형_17" x="592" y="556" width="338" height="138" filterUnits="userSpaceOnUse">
      <feOffset dy="3" input="SourceAlpha"/>
      <feGaussianBlur stdDeviation="3" result="blur-2"/>
      <feFlood flood-opacity="0.161"/>
      <feComposite operator="in" in2="blur-2"/>
      <feComposite in="SourceGraphic"/>
    </filter>
    <filter id="사각형_3" x="91" y="694" width="338" height="138" filterUnits="userSpaceOnUse">
      <feOffset dy="3" input="SourceAlpha"/>
      <feGaussianBlur stdDeviation="3" result="blur-3"/>
      <feFlood flood-opacity="0.161"/>
      <feComposite operator="in" in2="blur-3"/>
      <feComposite in="SourceGraphic"/>
    </filter>
    <filter id="사각형_18" x="592" y="696" width="338" height="138" filterUnits="userSpaceOnUse">
      <feOffset dy="3" input="SourceAlpha"/>
      <feGaussianBlur stdDeviation="3" result="blur-4"/>
      <feFlood flood-opacity="0.161"/>
      <feComposite operator="in" in2="blur-4"/>
      <feComposite in="SourceGraphic"/>
    </filter>
    <filter id="사각형_4" x="91" y="834" width="338" height="138" filterUnits="userSpaceOnUse">
      <feOffset dy="3" input="SourceAlpha"/>
      <feGaussianBlur stdDeviation="3" result="blur-5"/>
      <feFlood flood-opacity="0.161"/>
      <feComposite operator="in" in2="blur-5"/>
      <feComposite in="SourceGraphic"/>
    </filter>
    <filter id="사각형_19" x="592" y="834" width="338" height="138" filterUnits="userSpaceOnUse">
      <feOffset dy="3" input="SourceAlpha"/>
      <feGaussianBlur stdDeviation="3" result="blur-6"/>
      <feFlood flood-opacity="0.161"/>
      <feComposite operator="in" in2="blur-6"/>
      <feComposite in="SourceGraphic"/>
    </filter>
    <filter id="타원_10" x="465" y="134" width="90" height="90" filterUnits="userSpaceOnUse">
      <feOffset dy="3" input="SourceAlpha"/>
      <feGaussianBlur stdDeviation="3" result="blur-7"/>
      <feFlood flood-opacity="0.161"/>
      <feComposite operator="in" in2="blur-7"/>
      <feComposite in="SourceGraphic"/>
    </filter>
    <clipPath id="clip-path">
      <rect id="사각형_31" data-name="사각형 31" width="48" height="48" fill="none" stroke="#fff" stroke-width="1"/>
    </clipPath>
    <filter id="타원_13" x="465" y="398" width="90" height="90" filterUnits="userSpaceOnUse">
      <feOffset dy="3" input="SourceAlpha"/>
      <feGaussianBlur stdDeviation="3" result="blur-8"/>
      <feFlood flood-opacity="0.161"/>
      <feComposite operator="in" in2="blur-8"/>
      <feComposite in="SourceGraphic"/>
    </filter>
    <filter id="타원_15" x="217" y="520" width="90" height="90" filterUnits="userSpaceOnUse">
      <feOffset dy="3" input="SourceAlpha"/>
      <feGaussianBlur stdDeviation="3" result="blur-9"/>
      <feFlood flood-opacity="0.161"/>
      <feComposite operator="in" in2="blur-9"/>
      <feComposite in="SourceGraphic"/>
    </filter>
    <filter id="타원_14" x="715" y="520" width="90" height="90" filterUnits="userSpaceOnUse">
      <feOffset dy="3" input="SourceAlpha"/>
      <feGaussianBlur stdDeviation="3" result="blur-10"/>
      <feFlood flood-opacity="0.161"/>
      <feComposite operator="in" in2="blur-10"/>
      <feComposite in="SourceGraphic"/>
    </filter>
    <filter id="타원_12" x="465" y="720" width="90" height="90" filterUnits="userSpaceOnUse">
      <feOffset dy="3" input="SourceAlpha"/>
      <feGaussianBlur stdDeviation="3" result="blur-11"/>
      <feFlood flood-opacity="0.161"/>
      <feComposite operator="in" in2="blur-11"/>
      <feComposite in="SourceGraphic"/>
    </filter>
    <filter id="타원_16" x="1065" y="720" width="90" height="90" filterUnits="userSpaceOnUse">
      <feOffset dy="3" input="SourceAlpha"/>
      <feGaussianBlur stdDeviation="3" result="blur-12"/>
      <feFlood flood-opacity="0.161"/>
      <feComposite operator="in" in2="blur-12"/>
      <feComposite in="SourceGraphic"/>
    </filter>
    <filter id="타원_18" x="1001" y="448" width="90" height="90" filterUnits="userSpaceOnUse">
      <feOffset dy="3" input="SourceAlpha"/>
      <feGaussianBlur stdDeviation="3" result="blur-13"/>
      <feFlood flood-opacity="0.161"/>
      <feComposite operator="in" in2="blur-13"/>
      <feComposite in="SourceGraphic"/>
    </filter>
    <filter id="타원_17" x="1129" y="448" width="90" height="90" filterUnits="userSpaceOnUse">
      <feOffset dy="3" input="SourceAlpha"/>
      <feGaussianBlur stdDeviation="3" result="blur-14"/>
      <feFlood flood-opacity="0.161"/>
      <feComposite operator="in" in2="blur-14"/>
      <feComposite in="SourceGraphic"/>
    </filter>
    <filter id="타원_19" x="1294" y="88" width="90" height="90" filterUnits="userSpaceOnUse">
      <feOffset dy="3" input="SourceAlpha"/>
      <feGaussianBlur stdDeviation="3" result="blur-15"/>
      <feFlood flood-opacity="0.161"/>
      <feComposite operator="in" in2="blur-15"/>
      <feComposite in="SourceGraphic"/>
    </filter>
    <filter id="타원_20" x="1294" y="192" width="90" height="90" filterUnits="userSpaceOnUse">
      <feOffset dy="3" input="SourceAlpha"/>
      <feGaussianBlur stdDeviation="3" result="blur-16"/>
      <feFlood flood-opacity="0.161"/>
      <feComposite operator="in" in2="blur-16"/>
      <feComposite in="SourceGraphic"/>
    </filter>
    <clipPath id="clip-path-12">
      <rect id="사각형_46" data-name="사각형 46" width="50" height="31.056" fill="none"/>
    </clipPath>
    <clipPath id="clip-Gateway">
      <rect width="1920" height="1080"/>
    </clipPath>
  </defs>
  <g id="Gateway" clip-path="url(#clip-Gateway)">
    <rect width="1920" height="1080" fill="#fff"/>
    <path id="line" d="M5000,668.569h600v-167.5" transform="translate(-4040 91.931)" fill="none" stroke="#333" stroke-linecap="round" stroke-linejoin="round" stroke-width="2"/>
    <g id="사각형_20" data-name="사각형 20" transform="translate(40 332)" fill="none" stroke="#999" stroke-width="1">
      <rect width="1840" height="708" rx="30" stroke="none"/>
      <rect x="0.5" y="0.5" width="1839" height="707" rx="29.5" fill="none"/>
    </g>
    <rect id="사각형_1" data-name="사각형 1" width="900" height="580" rx="30" transform="translate(60 440)" fill="#f2f5eb"/>
    <rect id="사각형_28" data-name="사각형 28" width="600" height="239" rx="30" transform="translate(1260 354)" fill="#f2f5eb"/>
    <rect id="사각형_30" data-name="사각형 30" width="600" height="272" rx="30" transform="translate(1260 40)" fill="#f2f5eb"/>
    <rect id="사각형_29" data-name="사각형 29" width="600" height="239" rx="30" transform="translate(1260 781)" fill="#eee" opacity="0.5"/>
    <g transform="matrix(1, 0, 0, 1, 0, 0)" filter="url(#사각형_2)">
      <rect id="사각형_2-2" data-name="사각형 2" width="320" height="120" rx="20" transform="translate(100 562)" fill="#ffdfdf"/>
    </g>
    <g transform="matrix(1, 0, 0, 1, 0, 0)" filter="url(#사각형_17)">
      <rect id="사각형_17-2" data-name="사각형 17" width="320" height="120" rx="20" transform="translate(601 562)" fill="#ffdfdf"/>
    </g>
    <g transform="matrix(1, 0, 0, 1, 0, 0)" filter="url(#사각형_3)">
      <rect id="사각형_3-2" data-name="사각형 3" width="320" height="120" rx="20" transform="translate(100 700)" fill="#e9ffbb"/>
    </g>
    <g transform="matrix(1, 0, 0, 1, 0, 0)" filter="url(#사각형_18)">
      <rect id="사각형_18-2" data-name="사각형 18" width="320" height="120" rx="20" transform="translate(601 702)" fill="#e9ffbb"/>
    </g>
    <g transform="matrix(1, 0, 0, 1, 0, 0)" filter="url(#사각형_4)">
      <rect id="사각형_4-2" data-name="사각형 4" width="320" height="120" rx="20" transform="translate(100 840)" fill="#deff98"/>
    </g>
    <g transform="matrix(1, 0, 0, 1, 0, 0)" filter="url(#사각형_19)">
      <rect id="사각형_19-2" data-name="사각형 19" width="320" height="120" rx="20" transform="translate(601 840)" fill="#deff98"/>
    </g>
    <g id="사각형_5" data-name="사각형 5" transform="translate(80 540)" fill="none" stroke="#333" stroke-width="2" stroke-dasharray="10 10">
      <rect width="360" height="440" rx="30" stroke="none"/>
      <rect x="1" y="1" width="358" height="438" rx="29" fill="none"/>
    </g>
    <g id="사각형_16" data-name="사각형 16" transform="translate(580 540)" fill="none" stroke="#333" stroke-width="2" stroke-dasharray="10 10">
      <rect width="360" height="440" rx="30" stroke="none"/>
      <rect x="1" y="1" width="358" height="438" rx="29" fill="none"/>
    </g>
    <text id="AZ-A" transform="translate(80 527)" fill="#333" font-size="12" font-family="Roboto-Medium, Roboto" font-weight="500"><tspan x="0" y="0">AZ-A</tspan></text>
    <text id="AZ-C" transform="translate(580 527)" fill="#333" font-size="12" font-family="Roboto-Medium, Roboto" font-weight="500"><tspan x="0" y="0">AZ-C</tspan></text>
    <text id="Region-Seoul" transform="translate(80 371)" fill="#999" font-size="20" font-family="Roboto-Medium, Roboto" font-weight="500"><tspan x="0" y="0">Region-Seoul</tspan></text>
    <text id="VPC_Main_" data-name="VPC(Main)" transform="translate(80 479)" fill="#999" font-size="20" font-family="Roboto-Medium, Roboto" font-weight="500"><tspan x="0" y="0">VPC(Main)</tspan></text>
    <text id="VPC_Peered_" data-name="VPC(Peered)" transform="translate(1280 391)" fill="#999" font-size="20" font-family="Roboto-Medium, Roboto" font-weight="500"><tspan x="0" y="0">VPC(Peered)</tspan></text>
    <text id="VPC_Not_Peered_" data-name="VPC(Not Peered)" transform="translate(1280 820)" fill="#999" font-size="20" font-family="Roboto-Medium, Roboto" font-weight="500"><tspan x="0" y="0">VPC(Not Peered)</tspan></text>
    <text id="Subnet-Public" transform="translate(122 667)" fill="#333" font-size="18" font-family="Roboto-Medium, Roboto" font-weight="500"><tspan x="0" y="0">Subnet-Public</tspan></text>
    <text id="Subnet-Private" transform="translate(122 803)" fill="#333" font-size="18" font-family="Roboto-Medium, Roboto" font-weight="500"><tspan x="0" y="0">Subnet-Private</tspan></text>
    <text id="Subnet-Isolated" transform="translate(122 945)" fill="#333" font-size="18" font-family="Roboto-Medium, Roboto" font-weight="500"><tspan x="0" y="0">Subnet-Isolated</tspan></text>
    <text id="On_Premise" data-name="On Premise" transform="translate(1280 79)" fill="#999" font-size="20" font-family="Roboto-Medium, Roboto" font-weight="500"><tspan x="0" y="0">On Premise</tspan></text>
    <line id="line-2" data-name="line" x2="179" transform="translate(422.5 760.5)" fill="none" stroke="#333" stroke-linecap="round" stroke-width="2"/>
    <path id="line-3" data-name="line" d="M4462,706.809h88.331v-277H4641" transform="translate(-4040 193.191)" fill="none" stroke="#333" stroke-linejoin="round" stroke-width="2"/>
    <path id="line-4" data-name="line" d="M5074.726,548.362V663.824h64v57.538" transform="translate(-4028.726 4.638)" fill="none" stroke="#333" stroke-linecap="round" stroke-linejoin="round" stroke-width="2"/>
    <path id="line-5" data-name="line" d="M5138.726,548.362V663.824h-64v57.538" transform="translate(-3964.726 4.638)" fill="none" stroke="#333" stroke-linecap="round" stroke-linejoin="round" stroke-width="2"/>
    <path id="line-6" data-name="line" d="M5086,454V131.861h257" transform="translate(-4040)" fill="none" stroke="#333" stroke-width="2"/>
    <path id="line-7" data-name="line" d="M5086,351.861v-220h129" transform="translate(-3912 102.139)" fill="none" stroke="#333" stroke-width="2"/>
    <g id="line-arrow">
      <line id="선_17" data-name="선 17" y1="160" transform="translate(510 239)" fill="none" stroke="#333" stroke-linecap="round" stroke-width="2"/>
      <path id="패스_10" data-name="패스 10" d="M10,20,0,10,10,0" transform="translate(520 239) rotate(90)" fill="none" stroke="#333" stroke-linecap="round" stroke-linejoin="round" stroke-miterlimit="10" stroke-width="2"/>
      <path id="패스_21" data-name="패스 21" d="M10,20,0,10,10,0" transform="translate(500 399) rotate(-90)" fill="none" stroke="#333" stroke-linecap="round" stroke-linejoin="round" stroke-miterlimit="10" stroke-width="2"/>
    </g>
    <g id="line-arrow-2" data-name="line-arrow">
      <path id="패스_22" data-name="패스 22" d="M10,20,0,10,10,0" transform="translate(469 450) rotate(180)" fill="none" stroke="#333" stroke-linecap="round" stroke-linejoin="round" stroke-miterlimit="10" stroke-width="2"/>
      <path id="패스_23" data-name="패스 23" d="M4292,325.433v-86h207" transform="translate(-4030 200.567)" fill="none" stroke="#333" stroke-linecap="round" stroke-linejoin="round" stroke-width="2"/>
    </g>
    <rect id="font_bg-Router" width="42" height="27" transform="translate(489 798)" fill="#f2f5eb"/>
    <text id="Internet" transform="translate(510 230)" fill="#333" font-size="14" font-family="Roboto-Medium, Roboto" font-weight="500"><tspan x="-24.391" y="0">Internet</tspan></text>
    <g id="icon_Internet" transform="translate(486 152)">
      <g transform="matrix(1, 0, 0, 1, -486, -152)" filter="url(#타원_10)">
        <circle id="타원_10-2" data-name="타원 10" cx="36" cy="36" r="36" transform="translate(474 140)" fill="#e33b3b"/>
      </g>
      <g id="그룹_24" data-name="그룹 24" clip-path="url(#clip-path)">
        <circle id="타원_21" data-name="타원 21" cx="20" cy="20" r="20" transform="translate(4 4)" fill="none" stroke="#fff" stroke-linecap="round" stroke-linejoin="round" stroke-width="2"/>
        <line id="선_24" data-name="선 24" y2="39.972" transform="translate(24 4)" fill="none" stroke="#fff" stroke-linecap="round" stroke-linejoin="round" stroke-width="2"/>
        <path id="패스_30" data-name="패스 30" d="M24,44c-5.523,0-10-8.954-10-20S18.477,4,24,4" fill="none" stroke="#fff" stroke-linecap="round" stroke-linejoin="round" stroke-width="2"/>
        <path id="패스_31" data-name="패스 31" d="M24,4c5.523,0,10,8.954,10,20S29.523,44,24,44" fill="none" stroke="#fff" stroke-linecap="round" stroke-linejoin="round" stroke-width="2"/>
        <line id="선_25" data-name="선 25" x2="39.976" transform="translate(4 24)" fill="none" stroke="#fff" stroke-linecap="round" stroke-linejoin="round" stroke-width="2"/>
        <path id="패스_32" data-name="패스 32" d="M9.276,37.534A32.325,32.325,0,0,1,24,34.374a32.327,32.327,0,0,1,14.725,3.16" fill="none" stroke="#fff" stroke-linecap="round" stroke-linejoin="round" stroke-width="2"/>
        <path id="패스_33" data-name="패스 33" d="M38.725,10.989A32.325,32.325,0,0,1,24,14.149a32.327,32.327,0,0,1-14.725-3.16" fill="none" stroke="#fff" stroke-linecap="round" stroke-linejoin="round" stroke-width="2"/>
      </g>
    </g>
    <text id="Internet_Gateway" data-name="Internet Gateway" transform="translate(510 494)" fill="#333" font-size="14" font-family="Roboto-Medium, Roboto" font-weight="500"><tspan x="-53.115" y="0">Internet Gateway</tspan></text>
    <g id="icon_Gateway" transform="translate(486 416)">
      <g transform="matrix(1, 0, 0, 1, -486, -416)" filter="url(#타원_13)">
        <circle id="타원_13-2" data-name="타원 13" cx="36" cy="36" r="36" transform="translate(474 404)" fill="#e33b3b"/>
      </g>
      <g id="그룹_22" data-name="그룹 22" clip-path="url(#clip-path)">
        <path id="패스_20" data-name="패스 20" d="M16,15.9v-.463a5,5,0,0,1,5-5h6.234a5,5,0,0,1,5,5V15.9a.1.1,0,0,0,.1.1H39.9a.1.1,0,0,0,.1-.1V14A10,10,0,0,0,30,4H18A10,10,0,0,0,8,14v1.9a.1.1,0,0,0,.1.1h7.8A.1.1,0,0,0,16,15.9Z" fill="none" stroke="#fff" stroke-linecap="round" stroke-linejoin="round" stroke-width="2"/>
        <rect id="사각형_23" data-name="사각형 23" width="12.161" height="3.76" transform="translate(6 16.001)" fill="none" stroke="#fff" stroke-linecap="round" stroke-linejoin="round" stroke-width="2"/>
        <rect id="사각형_24" data-name="사각형 24" width="12.161" height="3.76" transform="translate(29.839 16.001)" fill="none" stroke="#fff" stroke-linecap="round" stroke-linejoin="round" stroke-width="2"/>
        <rect id="사각형_25" data-name="사각형 25" width="8.001" height="23.954" transform="translate(8 19.761)" fill="none" stroke="#fff" stroke-linecap="round" stroke-linejoin="round" stroke-width="2"/>
        <rect id="사각형_26" data-name="사각형 26" width="8.001" height="23.954" transform="translate(31.919 19.761)" fill="none" stroke="#fff" stroke-linecap="round" stroke-linejoin="round" stroke-width="2"/>
        <line id="선_22" data-name="선 22" x2="40" transform="translate(4 44)" fill="none" stroke="#fff" stroke-linecap="round" stroke-linejoin="round" stroke-width="2"/>
      </g>
    </g>
    <text id="NAT_Gateway" data-name="NAT Gateway" transform="translate(262 616)" fill="#333" font-size="14" font-family="Roboto-Medium, Roboto" font-weight="500"><tspan x="-42.048" y="0">NAT Gateway</tspan></text>
    <g id="icon_Gateway-2" data-name="icon_Gateway" transform="translate(238 536)">
      <g transform="matrix(1, 0, 0, 1, -238, -536)" filter="url(#타원_15)">
        <circle id="타원_15-2" data-name="타원 15" cx="36" cy="36" r="36" transform="translate(226 526)" fill="#f59b18"/>
      </g>
      <g id="그룹_22-2" data-name="그룹 22" clip-path="url(#clip-path)">
        <path id="패스_20-2" data-name="패스 20" d="M16,15.9v-.463a5,5,0,0,1,5-5h6.234a5,5,0,0,1,5,5V15.9a.1.1,0,0,0,.1.1H39.9a.1.1,0,0,0,.1-.1V14A10,10,0,0,0,30,4H18A10,10,0,0,0,8,14v1.9a.1.1,0,0,0,.1.1h7.8A.1.1,0,0,0,16,15.9Z" fill="none" stroke="#fff" stroke-linecap="round" stroke-linejoin="round" stroke-width="2"/>
        <rect id="사각형_23-2" data-name="사각형 23" width="12.161" height="3.76" transform="translate(6 16.001)" fill="none" stroke="#fff" stroke-linecap="round" stroke-linejoin="round" stroke-width="2"/>
        <rect id="사각형_24-2" data-name="사각형 24" width="12.161" height="3.76" transform="translate(29.839 16.001)" fill="none" stroke="#fff" stroke-linecap="round" stroke-linejoin="round" stroke-width="2"/>
        <rect id="사각형_25-2" data-name="사각형 25" width="8.001" height="23.954" transform="translate(8 19.761)" fill="none" stroke="#fff" stroke-linecap="round" stroke-linejoin="round" stroke-width="2"/>
        <rect id="사각형_26-2" data-name="사각형 26" width="8.001" height="23.954" transform="translate(31.919 19.761)" fill="none" stroke="#fff" stroke-linecap="round" stroke-linejoin="round" stroke-width="2"/>
        <line id="선_22-2" data-name="선 22" x2="40" transform="translate(4 44)" fill="none" stroke="#fff" stroke-linecap="round" stroke-linejoin="round" stroke-width="2"/>
      </g>
    </g>
    <text id="NAT_Gateway-2" data-name="NAT Gateway" transform="translate(760 616)" fill="#333" font-size="14" font-family="Roboto-Medium, Roboto" font-weight="500"><tspan x="-42.048" y="0">NAT Gateway</tspan></text>
    <g id="icon_Gateway-3" data-name="icon_Gateway" transform="translate(736 536)">
      <g transform="matrix(1, 0, 0, 1, -736, -536)" filter="url(#타원_14)">
        <circle id="타원_14-2" data-name="타원 14" cx="36" cy="36" r="36" transform="translate(724 526)" fill="#f59b18"/>
      </g>
      <g id="그룹_22-3" data-name="그룹 22" clip-path="url(#clip-path)">
        <path id="패스_20-3" data-name="패스 20" d="M16,15.9v-.463a5,5,0,0,1,5-5h6.234a5,5,0,0,1,5,5V15.9a.1.1,0,0,0,.1.1H39.9a.1.1,0,0,0,.1-.1V14A10,10,0,0,0,30,4H18A10,10,0,0,0,8,14v1.9a.1.1,0,0,0,.1.1h7.8A.1.1,0,0,0,16,15.9Z" fill="none" stroke="#fff" stroke-linecap="round" stroke-linejoin="round" stroke-width="2"/>
        <rect id="사각형_23-3" data-name="사각형 23" width="12.161" height="3.76" transform="translate(6 16.001)" fill="none" stroke="#fff" stroke-linecap="round" stroke-linejoin="round" stroke-width="2"/>
        <rect id="사각형_24-3" data-name="사각형 24" width="12.161" height="3.76" transform="translate(29.839 16.001)" fill="none" stroke="#fff" stroke-linecap="round" stroke-linejoin="round" stroke-width="2"/>
        <rect id="사각형_25-3" data-name="사각형 25" width="8.001" height="23.954" transform="translate(8 19.761)" fill="none" stroke="#fff" stroke-linecap="round" stroke-linejoin="round" stroke-width="2"/>
        <rect id="사각형_26-3" data-name="사각형 26" width="8.001" height="23.954" transform="translate(31.919 19.761)" fill="none" stroke="#fff" stroke-linecap="round" stroke-linejoin="round" stroke-width="2"/>
        <line id="선_22-3" data-name="선 22" x2="40" transform="translate(4 44)" fill="none" stroke="#fff" stroke-linecap="round" stroke-linejoin="round" stroke-width="2"/>
      </g>
    </g>
    <text id="Router" transform="translate(510 816)" fill="#333" font-size="14" font-family="Roboto-Medium, Roboto" font-weight="500"><tspan x="-20.788" y="0">Router</tspan></text>
    <g id="icon_Router" transform="translate(486 738)">
      <g transform="matrix(1, 0, 0, 1, -486, -738)" filter="url(#타원_12)">
        <circle id="타원_12-2" data-name="타원 12" cx="36" cy="36" r="36" transform="translate(474 726)" fill="#333"/>
      </g>
      <g id="그룹_20" data-name="그룹 20" clip-path="url(#clip-path)">
        <circle id="타원_11" data-name="타원 11" cx="20" cy="20" r="20" transform="translate(4 4)" fill="none" stroke="#fff" stroke-linecap="round" stroke-linejoin="round" stroke-width="2"/>
        <path id="패스_16" data-name="패스 16" d="M19.128,13.038,24.166,8,29.2,13.038" fill="none" stroke="#fff" stroke-linecap="round" stroke-linejoin="round" stroke-width="2"/>
        <line id="선_20" data-name="선 20" y2="32" transform="translate(24.166 8)" fill="none" stroke="#fff" stroke-linecap="round" stroke-linejoin="round" stroke-width="2"/>
        <path id="패스_17" data-name="패스 17" d="M29.2,34.962,24.165,40l-5.037-5.038" fill="none" stroke="#fff" stroke-linecap="round" stroke-linejoin="round" stroke-width="2"/>
        <path id="패스_18" data-name="패스 18" d="M35.128,18.962,40.166,24l-5.038,5.037" fill="none" stroke="#fff" stroke-linecap="round" stroke-linejoin="round" stroke-width="2"/>
        <line id="선_21" data-name="선 21" x1="32" transform="translate(8.166 24)" fill="none" stroke="#fff" stroke-linecap="round" stroke-linejoin="round" stroke-width="2"/>
        <path id="패스_19" data-name="패스 19" d="M13.2,29.038,8.165,24,13.2,18.963" fill="none" stroke="#fff" stroke-linecap="round" stroke-linejoin="round" stroke-width="2"/>
      </g>
    </g>
    <text id="Transit_Gateway" data-name="Transit Gateway" transform="translate(1110 816)" fill="#333" font-size="14" font-family="Roboto-Medium, Roboto" font-weight="500"><tspan x="-50.518" y="0">Transit Gateway</tspan></text>
    <g id="icon_Router-2" data-name="icon_Router" transform="translate(1086 738)">
      <g transform="matrix(1, 0, 0, 1, -1086, -738)" filter="url(#타원_16)">
        <circle id="타원_16-2" data-name="타원 16" cx="36" cy="36" r="36" transform="translate(1074 726)" fill="#333"/>
      </g>
      <g id="그룹_20-2" data-name="그룹 20" clip-path="url(#clip-path)">
        <circle id="타원_11-2" data-name="타원 11" cx="20" cy="20" r="20" transform="translate(4 4)" fill="none" stroke="#fff" stroke-linecap="round" stroke-linejoin="round" stroke-width="2"/>
        <path id="패스_16-2" data-name="패스 16" d="M19.128,13.038,24.166,8,29.2,13.038" fill="none" stroke="#fff" stroke-linecap="round" stroke-linejoin="round" stroke-width="2"/>
        <line id="선_20-2" data-name="선 20" y2="32" transform="translate(24.166 8)" fill="none" stroke="#fff" stroke-linecap="round" stroke-linejoin="round" stroke-width="2"/>
        <path id="패스_17-2" data-name="패스 17" d="M29.2,34.962,24.165,40l-5.037-5.038" fill="none" stroke="#fff" stroke-linecap="round" stroke-linejoin="round" stroke-width="2"/>
        <path id="패스_18-2" data-name="패스 18" d="M35.128,18.962,40.166,24l-5.038,5.037" fill="none" stroke="#fff" stroke-linecap="round" stroke-linejoin="round" stroke-width="2"/>
        <line id="선_21-2" data-name="선 21" x1="32" transform="translate(8.166 24)" fill="none" stroke="#fff" stroke-linecap="round" stroke-linejoin="round" stroke-width="2"/>
        <path id="패스_19-2" data-name="패스 19" d="M13.2,29.038,8.165,24,13.2,18.963" fill="none" stroke="#fff" stroke-linecap="round" stroke-linejoin="round" stroke-width="2"/>
      </g>
    </g>
    <text id="Direct_Connect" data-name="Direct Connect" transform="translate(1046 544)" fill="#333" font-size="14" font-family="Roboto-Medium, Roboto" font-weight="500"><tspan x="-46.337" y="0">Direct Connect</tspan></text>
    <g id="icon_DirectConnect" transform="translate(1022 466)">
      <g transform="matrix(1, 0, 0, 1, -1022, -466)" filter="url(#타원_18)">
        <circle id="타원_18-2" data-name="타원 18" cx="36" cy="36" r="36" transform="translate(1010 454)" fill="#268f00"/>
      </g>
      <g id="그룹_49" data-name="그룹 49">
        <g id="그룹_26" data-name="그룹 26">
          <g id="그룹_25" data-name="그룹 25" clip-path="url(#clip-path)">
            <path id="패스_34" data-name="패스 34" d="M8,36l16,8,16-8" fill="none" stroke="#fff" stroke-linecap="round" stroke-linejoin="round" stroke-width="2"/>
          </g>
        </g>
        <path id="패스_35" data-name="패스 35" d="M40,12,24,4,8,12" fill="none" stroke="#fff" stroke-linecap="round" stroke-linejoin="round" stroke-width="2"/>
        <g id="그룹_28" data-name="그룹 28">
          <g id="그룹_27" data-name="그룹 27" clip-path="url(#clip-path)">
            <line id="선_26" data-name="선 26" y2="40" transform="translate(24 4)" fill="none" stroke="#fff" stroke-linecap="round" stroke-linejoin="round" stroke-width="2"/>
          </g>
        </g>
        <line id="선_27" data-name="선 27" x2="39.872" transform="translate(4.128 24.001)" fill="none" stroke="#fff" stroke-linecap="round" stroke-linejoin="round" stroke-width="2"/>
        <path id="패스_36" data-name="패스 36" d="M12,16,4,24l8,8" fill="none" stroke="#fff" stroke-linecap="round" stroke-linejoin="round" stroke-width="2"/>
        <path id="패스_37" data-name="패스 37" d="M36,32l8-8-8-8" fill="none" stroke="#fff" stroke-linecap="round" stroke-linejoin="round" stroke-width="2"/>
      </g>
    </g>
    <text id="VPN_Gateway" data-name="VPN Gateway" transform="translate(1174 544)" fill="#333" font-size="14" font-family="Roboto-Medium, Roboto" font-weight="500"><tspan x="-42.697" y="0">VPN Gateway</tspan></text>
    <g id="icon_Gateway-4" data-name="icon_Gateway" transform="translate(1150 466)">
      <g transform="matrix(1, 0, 0, 1, -1150, -466)" filter="url(#타원_17)">
        <circle id="타원_17-2" data-name="타원 17" cx="36" cy="36" r="36" transform="translate(1138 454)" fill="#e33b3b"/>
      </g>
      <g id="그룹_22-4" data-name="그룹 22" clip-path="url(#clip-path)">
        <path id="패스_20-4" data-name="패스 20" d="M16,15.9v-.463a5,5,0,0,1,5-5h6.234a5,5,0,0,1,5,5V15.9a.1.1,0,0,0,.1.1H39.9a.1.1,0,0,0,.1-.1V14A10,10,0,0,0,30,4H18A10,10,0,0,0,8,14v1.9a.1.1,0,0,0,.1.1h7.8A.1.1,0,0,0,16,15.9Z" fill="none" stroke="#fff" stroke-linecap="round" stroke-linejoin="round" stroke-width="2"/>
        <rect id="사각형_23-4" data-name="사각형 23" width="12.161" height="3.76" transform="translate(6 16.001)" fill="none" stroke="#fff" stroke-linecap="round" stroke-linejoin="round" stroke-width="2"/>
        <rect id="사각형_24-4" data-name="사각형 24" width="12.161" height="3.76" transform="translate(29.839 16.001)" fill="none" stroke="#fff" stroke-linecap="round" stroke-linejoin="round" stroke-width="2"/>
        <rect id="사각형_25-4" data-name="사각형 25" width="8.001" height="23.954" transform="translate(8 19.761)" fill="none" stroke="#fff" stroke-linecap="round" stroke-linejoin="round" stroke-width="2"/>
        <rect id="사각형_26-4" data-name="사각형 26" width="8.001" height="23.954" transform="translate(31.919 19.761)" fill="none" stroke="#fff" stroke-linecap="round" stroke-linejoin="round" stroke-width="2"/>
        <line id="선_22-4" data-name="선 22" x2="40" transform="translate(4 44)" fill="none" stroke="#fff" stroke-linecap="round" stroke-linejoin="round" stroke-width="2"/>
      </g>
    </g>
    <text id="Customer_Gateway" data-name="Customer Gateway" transform="translate(1339 184)" fill="#333" font-size="14" font-family="Roboto-Medium, Roboto" font-weight="500"><tspan x="-59.315" y="0">Customer Gateway</tspan></text>
    <g id="icon_Gateway-5" data-name="icon_Gateway" transform="translate(1315 106)">
      <g transform="matrix(1, 0, 0, 1, -1315, -106)" filter="url(#타원_19)">
        <circle id="타원_19-2" data-name="타원 19" cx="36" cy="36" r="36" transform="translate(1303 94)" fill="#268f00"/>
      </g>
      <g id="그룹_22-5" data-name="그룹 22" clip-path="url(#clip-path)">
        <path id="패스_20-5" data-name="패스 20" d="M16,15.9v-.463a5,5,0,0,1,5-5h6.234a5,5,0,0,1,5,5V15.9a.1.1,0,0,0,.1.1H39.9a.1.1,0,0,0,.1-.1V14A10,10,0,0,0,30,4H18A10,10,0,0,0,8,14v1.9a.1.1,0,0,0,.1.1h7.8A.1.1,0,0,0,16,15.9Z" fill="none" stroke="#fff" stroke-linecap="round" stroke-linejoin="round" stroke-width="2"/>
        <rect id="사각형_23-5" data-name="사각형 23" width="12.161" height="3.76" transform="translate(6 16.001)" fill="none" stroke="#fff" stroke-linecap="round" stroke-linejoin="round" stroke-width="2"/>
        <rect id="사각형_24-5" data-name="사각형 24" width="12.161" height="3.76" transform="translate(29.839 16.001)" fill="none" stroke="#fff" stroke-linecap="round" stroke-linejoin="round" stroke-width="2"/>
        <rect id="사각형_25-5" data-name="사각형 25" width="8.001" height="23.954" transform="translate(8 19.761)" fill="none" stroke="#fff" stroke-linecap="round" stroke-linejoin="round" stroke-width="2"/>
        <rect id="사각형_26-5" data-name="사각형 26" width="8.001" height="23.954" transform="translate(31.919 19.761)" fill="none" stroke="#fff" stroke-linecap="round" stroke-linejoin="round" stroke-width="2"/>
        <line id="선_22-5" data-name="선 22" x2="40" transform="translate(4 44)" fill="none" stroke="#fff" stroke-linecap="round" stroke-linejoin="round" stroke-width="2"/>
      </g>
    </g>
    <text id="VPN_Gateway-2" data-name="VPN Gateway" transform="translate(1339 288)" fill="#333" font-size="14" font-family="Roboto-Medium, Roboto" font-weight="500"><tspan x="-42.697" y="0">VPN Gateway</tspan></text>
    <g id="icon_Gateway-6" data-name="icon_Gateway" transform="translate(1315 210)">
      <g transform="matrix(1, 0, 0, 1, -1315, -210)" filter="url(#타원_20)">
        <circle id="타원_20-2" data-name="타원 20" cx="36" cy="36" r="36" transform="translate(1303 198)" fill="#e33b3b"/>
      </g>
      <g id="그룹_22-6" data-name="그룹 22" clip-path="url(#clip-path)">
        <path id="패스_20-6" data-name="패스 20" d="M16,15.9v-.463a5,5,0,0,1,5-5h6.234a5,5,0,0,1,5,5V15.9a.1.1,0,0,0,.1.1H39.9a.1.1,0,0,0,.1-.1V14A10,10,0,0,0,30,4H18A10,10,0,0,0,8,14v1.9a.1.1,0,0,0,.1.1h7.8A.1.1,0,0,0,16,15.9Z" fill="none" stroke="#fff" stroke-linecap="round" stroke-linejoin="round" stroke-width="2"/>
        <rect id="사각형_23-6" data-name="사각형 23" width="12.161" height="3.76" transform="translate(6 16.001)" fill="none" stroke="#fff" stroke-linecap="round" stroke-linejoin="round" stroke-width="2"/>
        <rect id="사각형_24-6" data-name="사각형 24" width="12.161" height="3.76" transform="translate(29.839 16.001)" fill="none" stroke="#fff" stroke-linecap="round" stroke-linejoin="round" stroke-width="2"/>
        <rect id="사각형_25-6" data-name="사각형 25" width="8.001" height="23.954" transform="translate(8 19.761)" fill="none" stroke="#fff" stroke-linecap="round" stroke-linejoin="round" stroke-width="2"/>
        <rect id="사각형_26-6" data-name="사각형 26" width="8.001" height="23.954" transform="translate(31.919 19.761)" fill="none" stroke="#fff" stroke-linecap="round" stroke-linejoin="round" stroke-width="2"/>
        <line id="선_22-6" data-name="선 22" x2="40" transform="translate(4 44)" fill="none" stroke="#fff" stroke-linecap="round" stroke-linejoin="round" stroke-width="2"/>
      </g>
    </g>
    <g id="AWS_logo" transform="translate(935 348.472)">
      <g id="그룹_48" data-name="그룹 48" transform="translate(0 0)" clip-path="url(#clip-path-12)">
        <path id="패스_47" data-name="패스 47" d="M47.674,21.251c.643.837-.716,4.285-1.324,5.827-.186.468.21.651.624.3,2.7-2.293,3.4-7.1,2.847-7.791s-5.27-1.281-8.149.77c-.444.318-.366.754.124.7,1.623-.2,5.237-.638,5.878.2m-1.5,3.588c.926-.676.132-1.679-.81-1.284a51.077,51.077,0,0,1-19.286,3.878A51.5,51.5,0,0,1,.8,20.836c-.63-.361-1.1.275-.571.737a37.772,37.772,0,0,0,25.258,9.482c6.987,0,15.093-2.158,20.683-6.217m-3.827-9.312a11.683,11.683,0,0,1-2.608-.288,7.764,7.764,0,0,1-1.951-.665,1.135,1.135,0,0,1-.519-.463,1.162,1.162,0,0,1-.1-.463v-.837c0-.347.129-.525.385-.525a1.013,1.013,0,0,1,.31.059c.108.043.253.1.431.175a8.861,8.861,0,0,0,1.862.579,10.229,10.229,0,0,0,2.01.2,4.623,4.623,0,0,0,2.473-.549,1.732,1.732,0,0,0,.872-1.558,1.576,1.576,0,0,0-.458-1.16,4.425,4.425,0,0,0-1.7-.867l-2.455-.751a5.229,5.229,0,0,1-2.708-1.677,3.851,3.851,0,0,1-.845-2.4A3.61,3.61,0,0,1,37.8,2.5,4.418,4.418,0,0,1,39.01,1.141,5.564,5.564,0,0,1,40.773.288,7.705,7.705,0,0,1,42.9,0a9.152,9.152,0,0,1,1.141.073,10.777,10.777,0,0,1,1.1.188q.517.117.961.258A4.878,4.878,0,0,1,46.81.81a1.636,1.636,0,0,1,.5.406.911.911,0,0,1,.148.549v.778c0,.35-.129.519-.388.519a1.828,1.828,0,0,1-.651-.2,7.943,7.943,0,0,0-3.248-.635,4.564,4.564,0,0,0-2.255.46,1.583,1.583,0,0,0-.8,1.478,1.537,1.537,0,0,0,.506,1.168,5.089,5.089,0,0,0,1.865.912l2.4.754A5.17,5.17,0,0,1,47.5,8.588,3.664,3.664,0,0,1,48.29,10.9a4.1,4.1,0,0,1-.444,1.924,4.388,4.388,0,0,1-1.233,1.459,5.513,5.513,0,0,1-1.876.926,8.468,8.468,0,0,1-2.4.318M20.618,15.09a1.066,1.066,0,0,1-.651-.156,1.288,1.288,0,0,1-.355-.651L15.644,1.5A3.1,3.1,0,0,1,15.5.84a.362.362,0,0,1,.414-.4h1.658a1.052,1.052,0,0,1,.665.159,1.317,1.317,0,0,1,.336.651l2.842,10.93,2.64-10.93a1.148,1.148,0,0,1,.32-.651,1.119,1.119,0,0,1,.678-.159h1.37A1.115,1.115,0,0,1,27.1.595a1.164,1.164,0,0,1,.328.651l2.664,11.072L33.019,1.246a1.363,1.363,0,0,1,.336-.651,1.061,1.061,0,0,1,.667-.159H35.59c.28,0,.417.135.417.4a1.654,1.654,0,0,1-.03.258,2.75,2.75,0,0,1-.121.4l-4.08,12.781a1.268,1.268,0,0,1-.358.651,1.061,1.061,0,0,1-.651.156H29.319a1.081,1.081,0,0,1-.681-.167,1.241,1.241,0,0,1-.323-.667L25.68,3.614l-2.6,10.642a1.28,1.28,0,0,1-.328.667,1.081,1.081,0,0,1-.681.167ZM7.034,13.3A5.583,5.583,0,0,0,8.784,13a3.677,3.677,0,0,0,1.6-1.055,2.576,2.576,0,0,0,.576-1.058,5.469,5.469,0,0,0,.159-1.429V8.763a14.228,14.228,0,0,0-1.55-.277,13.359,13.359,0,0,0-1.583-.1,3.961,3.961,0,0,0-2.514.665,2.307,2.307,0,0,0-.832,1.911,2.3,2.3,0,0,0,.624,1.747,2.469,2.469,0,0,0,1.774.592M13.9,10.787a4.559,4.559,0,0,0,.188,1.472,7.836,7.836,0,0,0,.549,1.187.736.736,0,0,1,.118.374.63.63,0,0,1-.323.493l-1.068.7a.883.883,0,0,1-.444.143.711.711,0,0,1-.5-.229,3.589,3.589,0,0,1-.6-.77,10.2,10.2,0,0,1-.522-.972A6.305,6.305,0,0,1,6.326,15.47a4.7,4.7,0,0,1-3.38-1.187A4.2,4.2,0,0,1,1.708,11.1a4.206,4.206,0,0,1,1.542-3.4A6.253,6.253,0,0,1,7.39,6.419a13.509,13.509,0,0,1,1.792.129c.616.086,1.268.21,1.932.363V5.7a3.593,3.593,0,0,0-.794-2.648A3.927,3.927,0,0,0,7.57,2.288,8.119,8.119,0,0,0,5.748,2.5a13.683,13.683,0,0,0-1.819.562,4.6,4.6,0,0,1-.592.218,1.194,1.194,0,0,1-.266.043c-.234,0-.355-.172-.355-.522V1.994a1.007,1.007,0,0,1,.121-.576,1.129,1.129,0,0,1,.471-.347A11.187,11.187,0,0,1,5.436.318,10.6,10.6,0,0,1,8.073,0a6.236,6.236,0,0,1,4.419,1.343A5.379,5.379,0,0,1,13.9,5.407Z" transform="translate(0.001 -0.001)" fill="#333" fill-rule="evenodd"/>
      </g>
    </g>
    <g id="사각형_47" data-name="사각형 47" transform="translate(1280 845)" fill="#fff" stroke="#333" stroke-width="1">
      <rect width="173" height="120" stroke="none"/>
      <rect x="0.5" y="0.5" width="172" height="119" fill="none"/>
    </g>
    <g id="사각형_50" data-name="사각형 50" transform="translate(1280 416)" fill="#fff" stroke="#333" stroke-width="1">
      <rect width="173" height="120" stroke="none"/>
      <rect x="0.5" y="0.5" width="172" height="119" fill="none"/>
    </g>
    <g id="사각형_48" data-name="사각형 48" transform="translate(1474 845)" fill="#fff" stroke="#333" stroke-width="1">
      <rect width="173" height="120" stroke="none"/>
      <rect x="0.5" y="0.5" width="172" height="119" fill="none"/>
    </g>
    <g id="사각형_51" data-name="사각형 51" transform="translate(1474 416)" fill="#fff" stroke="#333" stroke-width="1">
      <rect width="173" height="120" stroke="none"/>
      <rect x="0.5" y="0.5" width="172" height="119" fill="none"/>
    </g>
    <g id="사각형_49" data-name="사각형 49" transform="translate(1667 845)" fill="#fff" stroke="#333" stroke-width="1">
      <rect width="173" height="120" stroke="none"/>
      <rect x="0.5" y="0.5" width="172" height="119" fill="none"/>
    </g>
    <g id="사각형_52" data-name="사각형 52" transform="translate(1667 416)" fill="#fff" stroke="#333" stroke-width="1">
      <rect width="173" height="120" stroke="none"/>
      <rect x="0.5" y="0.5" width="172" height="119" fill="none"/>
    </g>
  </g>
</svg>
